<svg version="1.0" preserveAspectRatio="xMidYMid meet" viewBox="322.84697508896795 636.4799712700001 152.77580071174378 143.99999350000002" zoomAndPan="magnify" xmlns:xlink="http://www.w3.org/1999/xlink" xmlns="http://www.w3.org/2000/svg" style="max-height: 500px" width="152.77580071174378" height="143.99999350000002"><defs><clipPath id="d7bc2a5f6e"><path clip-rule="nonzero" d="M 351 673.136719 L 458.902344 673.136719 L 458.902344 766.886719 L 351 766.886719 Z M 351 673.136719"/></clipPath></defs><g clip-path="url(#d7bc2a5f6e)"><path fill-rule="nonzero" fill-opacity="1" d="M 455.269531 686.839844 L 448.703125 698.210938 L 442.285156 698.210938 L 439.074219 692.652344 L 445.640625 681.277344 C 444.257812 681.121094 442.882812 681.164062 441.511719 681.40625 C 440.140625 681.644531 438.835938 682.078125 437.589844 682.699219 C 436.347656 683.320312 435.214844 684.105469 434.199219 685.054688 C 433.183594 686.003906 432.324219 687.078125 431.617188 688.277344 C 430.949219 689.417969 430.449219 690.628906 430.121094 691.914062 C 429.792969 693.195312 429.648438 694.496094 429.6875 695.820312 C 429.730469 697.144531 429.953125 698.433594 430.359375 699.695312 C 430.761719 700.953125 431.335938 702.132812 432.074219 703.230469 C 421.664062 721.257812 411.257812 739.289062 400.847656 757.324219 C 400.636719 757.683594 400.464844 758.0625 400.328125 758.457031 C 400.191406 758.851562 400.09375 759.253906 400.039062 759.667969 C 399.984375 760.078125 399.96875 760.496094 399.992188 760.910156 C 400.019531 761.328125 400.085938 761.738281 400.191406 762.140625 C 400.300781 762.542969 400.445312 762.933594 400.628906 763.304688 C 400.8125 763.679688 401.03125 764.035156 401.285156 764.363281 C 401.539062 764.695312 401.820312 765 402.136719 765.273438 C 402.449219 765.550781 402.785156 765.792969 403.148438 766 C 403.507812 766.207031 403.886719 766.378906 404.28125 766.511719 C 404.675781 766.648438 405.082031 766.742188 405.496094 766.792969 C 405.90625 766.847656 406.324219 766.863281 406.738281 766.832031 C 407.15625 766.804688 407.5625 766.738281 407.964844 766.628906 C 408.371094 766.519531 408.757812 766.371094 409.128906 766.183594 C 409.503906 766 409.855469 765.777344 410.183594 765.523438 C 410.515625 765.269531 410.816406 764.984375 411.089844 764.667969 C 411.363281 764.351562 411.605469 764.015625 411.808594 763.652344 C 422.21875 745.621094 432.628906 727.589844 443.039062 709.558594 C 448.246094 709.875 453.355469 707.441406 456.21875 702.480469 C 456.90625 701.273438 457.40625 699.988281 457.71875 698.632812 C 458.035156 697.28125 458.148438 695.910156 458.066406 694.519531 C 457.980469 693.132812 457.699219 691.785156 457.226562 690.476562 C 456.75 689.171875 456.097656 687.957031 455.269531 686.839844 Z M 407.90625 760.746094 L 407.789062 760.953125 C 407.691406 761.125 407.5625 761.273438 407.40625 761.394531 C 407.25 761.515625 407.074219 761.601562 406.882812 761.65625 C 406.691406 761.707031 406.496094 761.71875 406.296875 761.695312 C 406.101562 761.667969 405.917969 761.605469 405.742188 761.507812 C 405.570312 761.410156 405.425781 761.28125 405.304688 761.125 C 405.183594 760.964844 405.09375 760.792969 405.042969 760.601562 C 404.992188 760.40625 404.976562 760.214844 405.003906 760.015625 C 405.027344 759.820312 405.089844 759.632812 405.191406 759.460938 L 405.3125 759.253906 C 405.410156 759.082031 405.539062 758.9375 405.695312 758.816406 C 405.851562 758.695312 406.027344 758.605469 406.21875 758.554688 C 406.410156 758.503906 406.605469 758.492188 406.800781 758.515625 C 407 758.542969 407.183594 758.605469 407.355469 758.703125 C 407.527344 758.800781 407.671875 758.929688 407.792969 759.085938 C 407.914062 759.246094 408.003906 759.417969 408.054688 759.609375 C 408.105469 759.800781 408.117188 759.996094 408.09375 760.195312 C 408.066406 760.390625 408.003906 760.574219 407.90625 760.746094 Z M 437.617188 709.292969 L 410.257812 756.671875 C 410.160156 756.84375 410.03125 756.992188 409.875 757.117188 C 409.714844 757.238281 409.542969 757.324219 409.351562 757.378906 C 409.15625 757.429688 408.960938 757.445312 408.765625 757.417969 C 408.566406 757.394531 408.382812 757.332031 408.210938 757.230469 C 408.035156 757.132812 407.890625 757.003906 407.769531 756.84375 C 407.648438 756.6875 407.5625 756.511719 407.507812 756.320312 C 407.457031 756.125 407.445312 755.933594 407.472656 755.734375 C 407.5 755.535156 407.5625 755.351562 407.664062 755.179688 L 435.015625 707.800781 C 435.117188 707.628906 435.242188 707.480469 435.402344 707.359375 C 435.558594 707.238281 435.734375 707.148438 435.925781 707.097656 C 436.117188 707.046875 436.3125 707.03125 436.507812 707.058594 C 436.707031 707.082031 436.890625 707.144531 437.0625 707.246094 C 437.234375 707.34375 437.382812 707.472656 437.503906 707.628906 C 437.625 707.785156 437.710938 707.960938 437.765625 708.152344 C 437.816406 708.347656 437.828125 708.539062 437.804688 708.738281 C 437.777344 708.933594 437.714844 709.121094 437.617188 709.292969 Z M 405.664062 703.171875 C 405.960938 703.46875 406.1875 703.808594 406.347656 704.199219 C 406.507812 704.585938 406.585938 704.988281 406.585938 705.410156 C 406.585938 705.828125 406.507812 706.230469 406.347656 706.621094 C 406.1875 707.007812 405.960938 707.347656 405.664062 707.648438 L 388.910156 724.394531 C 388.613281 724.691406 388.269531 724.921875 387.882812 725.082031 C 387.492188 725.242188 387.089844 725.324219 386.671875 725.324219 C 386.25 725.324219 385.847656 725.242188 385.457031 725.082031 C 385.070312 724.921875 384.730469 724.691406 384.433594 724.394531 L 377.566406 717.53125 C 377.273438 717.234375 377.046875 716.894531 376.890625 716.507812 C 376.730469 716.121094 376.652344 715.71875 376.65625 715.300781 C 376.65625 714.882812 376.738281 714.480469 376.898438 714.097656 C 377.058594 713.710938 377.285156 713.371094 377.582031 713.074219 C 377.875 712.78125 378.214844 712.550781 378.601562 712.390625 C 378.988281 712.230469 379.390625 712.148438 379.808594 712.148438 C 380.222656 712.148438 380.625 712.226562 381.011719 712.382812 C 381.398438 712.542969 381.742188 712.769531 382.039062 713.0625 L 386.671875 717.691406 L 401.1875 703.171875 C 401.484375 702.875 401.828125 702.648438 402.214844 702.488281 C 402.605469 702.328125 403.007812 702.246094 403.425781 702.246094 C 403.847656 702.246094 404.25 702.328125 404.636719 702.488281 C 405.023438 702.648438 405.367188 702.875 405.664062 703.171875 Z M 426.484375 706.902344 L 423.828125 706.234375 C 423.003906 702.714844 421.636719 699.421875 419.730469 696.355469 L 421.621094 693.179688 L 423.925781 689.320312 C 421.671875 686.34375 419.054688 683.726562 416.082031 681.476562 L 412.21875 683.78125 L 409.046875 685.671875 C 405.976562 683.765625 402.683594 682.402344 399.164062 681.578125 L 398.265625 678.003906 L 397.160156 673.632812 C 393.460938 673.128906 389.761719 673.128906 386.0625 673.632812 L 384.96875 678.003906 L 384.066406 681.578125 C 380.546875 682.402344 377.25 683.765625 374.179688 685.671875 L 371.015625 683.78125 L 367.152344 681.472656 C 364.175781 683.730469 361.558594 686.34375 359.300781 689.320312 L 361.609375 693.179688 L 363.503906 696.355469 C 361.59375 699.421875 360.226562 702.714844 359.40625 706.234375 L 355.828125 707.136719 L 351.460938 708.238281 C 350.953125 711.9375 350.953125 715.636719 351.460938 719.335938 L 355.828125 720.4375 L 359.40625 721.332031 C 360.226562 724.851562 361.59375 728.148438 363.503906 731.21875 L 361.609375 734.386719 L 359.300781 738.246094 C 361.558594 741.222656 364.175781 743.839844 367.152344 746.097656 L 371.015625 743.789062 L 374.179688 741.894531 C 377.25 743.804688 380.546875 745.171875 384.066406 745.996094 L 384.96875 749.570312 L 386.0625 753.9375 C 389.765625 754.445312 393.464844 754.445312 397.164062 753.9375 L 398.265625 749.570312 L 399.167969 745.996094 C 401.191406 745.523438 403.15625 744.863281 405.054688 744.015625 Z M 391.613281 738.113281 C 390.816406 738.113281 390.019531 738.074219 389.226562 737.996094 C 388.433594 737.917969 387.648438 737.800781 386.867188 737.644531 C 386.085938 737.488281 385.3125 737.296875 384.550781 737.066406 C 383.789062 736.832031 383.039062 736.566406 382.300781 736.261719 C 381.566406 735.953125 380.847656 735.613281 380.144531 735.238281 C 379.441406 734.863281 378.757812 734.453125 378.097656 734.011719 C 377.433594 733.566406 376.792969 733.09375 376.179688 732.589844 C 375.5625 732.082031 374.972656 731.546875 374.410156 730.984375 C 373.847656 730.421875 373.3125 729.832031 372.808594 729.214844 C 372.300781 728.597656 371.828125 727.960938 371.386719 727.296875 C 370.941406 726.636719 370.53125 725.953125 370.15625 725.25 C 369.78125 724.546875 369.441406 723.828125 369.136719 723.089844 C 368.832031 722.355469 368.5625 721.605469 368.332031 720.84375 C 368.101562 720.082031 367.910156 719.308594 367.753906 718.527344 C 367.597656 717.746094 367.480469 716.957031 367.402344 716.164062 C 367.324219 715.371094 367.285156 714.578125 367.285156 713.78125 C 367.285156 712.984375 367.324219 712.1875 367.402344 711.394531 C 367.480469 710.601562 367.597656 709.816406 367.753906 709.035156 C 367.910156 708.253906 368.101562 707.480469 368.335938 706.71875 C 368.566406 705.953125 368.835938 705.207031 369.140625 704.46875 C 369.445312 703.734375 369.785156 703.015625 370.160156 702.3125 C 370.535156 701.609375 370.945312 700.925781 371.386719 700.261719 C 371.832031 699.601562 372.304688 698.960938 372.8125 698.347656 C 373.316406 697.730469 373.851562 697.140625 374.414062 696.578125 C 374.976562 696.011719 375.566406 695.480469 376.183594 694.972656 C 376.800781 694.46875 377.4375 693.996094 378.101562 693.550781 C 378.765625 693.109375 379.445312 692.699219 380.148438 692.324219 C 380.851562 691.949219 381.570312 691.609375 382.308594 691.304688 C 383.042969 691 383.792969 690.730469 384.554688 690.5 C 385.320312 690.269531 386.089844 690.074219 386.871094 689.917969 C 387.652344 689.765625 388.441406 689.648438 389.234375 689.570312 C 390.027344 689.492188 390.820312 689.453125 391.617188 689.453125 C 392.414062 689.453125 393.210938 689.492188 394.003906 689.570312 C 394.796875 689.648438 395.585938 689.765625 396.367188 689.921875 C 397.148438 690.078125 397.917969 690.269531 398.679688 690.5 C 399.445312 690.734375 400.195312 691 400.929688 691.304688 C 401.664062 691.609375 402.386719 691.953125 403.085938 692.328125 C 403.789062 692.703125 404.472656 693.113281 405.136719 693.554688 C 405.796875 693.996094 406.4375 694.472656 407.054688 694.976562 C 407.667969 695.484375 408.257812 696.015625 408.820312 696.582031 C 409.386719 697.144531 409.921875 697.734375 410.425781 698.351562 C 410.929688 698.964844 411.40625 699.605469 411.847656 700.269531 C 412.289062 700.929688 412.699219 701.613281 413.074219 702.316406 C 413.449219 703.019531 413.789062 703.738281 414.09375 704.476562 C 414.398438 705.210938 414.667969 705.960938 414.898438 706.722656 C 415.128906 707.484375 415.324219 708.257812 415.480469 709.039062 C 415.636719 709.820312 415.75 710.609375 415.828125 711.402344 C 415.90625 712.195312 415.945312 712.988281 415.945312 713.785156 C 415.945312 714.582031 415.90625 715.378906 415.828125 716.171875 C 415.75 716.964844 415.632812 717.75 415.480469 718.53125 C 415.324219 719.3125 415.128906 720.085938 414.898438 720.847656 C 414.667969 721.613281 414.398438 722.359375 414.09375 723.097656 C 413.789062 723.832031 413.449219 724.554688 413.074219 725.253906 C 412.699219 725.957031 412.289062 726.640625 411.847656 727.304688 C 411.402344 727.964844 410.929688 728.605469 410.421875 729.222656 C 409.917969 729.835938 409.382812 730.425781 408.820312 730.992188 C 408.257812 731.554688 407.667969 732.089844 407.050781 732.59375 C 406.433594 733.097656 405.792969 733.574219 405.132812 734.015625 C 404.46875 734.457031 403.785156 734.867188 403.082031 735.242188 C 402.378906 735.617188 401.660156 735.957031 400.925781 736.261719 C 400.1875 736.566406 399.4375 736.835938 398.675781 737.066406 C 397.914062 737.296875 397.140625 737.492188 396.359375 737.648438 C 395.578125 737.800781 394.792969 737.917969 394 737.996094 C 393.203125 738.074219 392.410156 738.113281 391.613281 738.113281 Z M 391.613281 738.113281" fill="#d7b56c"/></g></svg>