<svg version="1.0" preserveAspectRatio="xMidYMid meet" viewBox="340.1423487544484 636.4799712700001 149.8932384341637 158.39999285000002" zoomAndPan="magnify" xmlns:xlink="http://www.w3.org/1999/xlink" xmlns="http://www.w3.org/2000/svg" style="max-height: 500px" width="149.8932384341637" height="158.39999285000002"><defs><clipPath id="f7b3d52487"><path clip-rule="nonzero" d="M 354.480469 670.363281 L 454 670.363281 L 454 768 L 354.480469 768 Z M 354.480469 670.363281"/></clipPath></defs><g clip-path="url(#f7b3d52487)"><path fill-rule="nonzero" fill-opacity="1" d="M 452.277344 721.394531 C 450.476562 713.40625 446.144531 706.878906 439.835938 701.675781 C 437.320312 699.59375 434.546875 697.90625 431.554688 696.59375 C 431.335938 696.496094 431.167969 696.363281 430.925781 696.617188 C 430.023438 697.601562 429.066406 698.523438 428.054688 699.402344 C 428.117188 699.449219 428.140625 699.488281 428.164062 699.5 C 428.335938 699.574219 428.503906 699.644531 428.675781 699.71875 C 431.738281 700.957031 434.621094 702.550781 437.136719 704.703125 C 447.472656 713.554688 451.445312 724.742188 448.371094 737.980469 C 444.40625 754.992188 427.773438 765.484375 411.164062 762.589844 C 405.011719 761.507812 399.6875 758.773438 395.128906 754.554688 C 389.691406 749.542969 386.242188 743.351562 384.390625 736.242188 C 384.34375 736.035156 384.285156 735.828125 384.234375 735.609375 C 384.039062 734.804688 383.871094 734.019531 383.761719 733.214844 C 383.75 733.167969 383.734375 733.117188 383.734375 733.054688 C 382.824219 727.621094 382.703125 721.421875 382.703125 721.421875 C 382.667969 721.347656 382.640625 721.273438 382.738281 721.226562 C 382.824219 719.878906 383.070312 718.550781 383.613281 717.308594 C 384.746094 714.769531 386.363281 712.582031 388.378906 710.671875 C 389.488281 709.625 390.765625 708.996094 392.246094 708.691406 C 394.65625 708.203125 397.097656 707.988281 399.519531 707.621094 C 405.125 706.808594 410.535156 705.285156 415.75 703.109375 C 421.417969 700.75 426.085938 697.03125 429.941406 692.277344 C 432.992188 688.519531 435.375 684.371094 437.015625 679.8125 C 437.199219 679.304688 437.125 679.085938 436.5625 678.925781 C 434.292969 678.308594 431.992188 677.84375 429.660156 677.550781 C 425.878906 677.078125 422.109375 677.101562 418.339844 677.613281 C 414.21875 678.171875 410.316406 679.414062 406.535156 681.140625 C 399.957031 684.179688 394.949219 688.785156 391.980469 695.488281 C 390.484375 698.855469 389.546875 702.394531 388.417969 705.882812 C 388.378906 705.96875 388.320312 706.078125 388.441406 706.164062 L 388.429688 706.136719 C 390.835938 703.050781 393.441406 700.132812 396.347656 697.503906 C 401.292969 693.019531 406.777344 689.429688 413.183594 687.378906 C 414.242188 687.035156 415.3125 686.722656 416.457031 686.597656 C 402.023438 693.324219 390.65625 703.476562 382.277344 716.859375 C 382.277344 716.871094 382.265625 716.75 382.289062 716.628906 C 382.886719 712.714844 382.726562 708.835938 381.960938 704.96875 C 380.792969 699.136719 378.3125 693.867188 374.933594 689.003906 C 373.570312 687.046875 372.089844 685.1875 370.53125 683.378906 C 371.25 683.597656 371.796875 684.105469 372.332031 684.578125 C 378.957031 690.476562 382.179688 698.0625 383.382812 706.671875 C 383.566406 708.035156 383.613281 709.394531 383.761719 710.769531 C 384.796875 708.410156 385.789062 706.039062 386.546875 703.582031 C 387.6875 699.8125 388.101562 695.984375 387.238281 692.082031 C 386.230469 687.484375 383.894531 683.570312 380.722656 680.191406 C 373.816406 672.820312 365.0625 670.355469 355.234375 670.84375 C 354.882812 670.851562 354.738281 670.988281 354.703125 671.386719 C 354.53125 673.734375 354.664062 676.058594 354.945312 678.378906 C 355.492188 682.71875 356.660156 686.867188 358.75 690.722656 C 362.410156 697.457031 367.652344 702.816406 373.789062 707.339844 C 375.46875 708.570312 377.269531 709.652344 378.984375 710.839844 C 379.90625 711.488281 380.574219 712.351562 380.78125 713.515625 C 380.964844 714.515625 380.914062 715.523438 380.707031 716.507812 C 380.234375 718.796875 379.847656 721.078125 379.6875 723.414062 C 379.507812 726.101562 379.53125 728.777344 379.675781 731.460938 C 379.832031 734.550781 380.257812 737.601562 381.132812 740.582031 C 386.339844 758.40625 404.125 769.628906 422.4375 766.601562 C 429.671875 765.410156 436.117188 762.429688 441.425781 757.347656 C 451.765625 747.429688 455.421875 735.367188 452.277344 721.394531" fill="#d7b56c"/></g><path fill-rule="nonzero" fill-opacity="1" d="M 432.785156 728.742188 L 418.925781 728.53125 C 419.136719 726.660156 419.347656 724.785156 419.5625 722.914062 C 419.820312 720.660156 420.074219 718.410156 420.335938 716.15625 C 420.589844 713.9375 420.851562 711.722656 421.121094 709.394531 C 420.96875 709.601562 420.878906 709.71875 420.796875 709.84375 C 417.898438 714.296875 415 718.75 412.109375 723.203125 C 410.914062 725.039062 409.722656 726.882812 408.535156 728.722656 C 408.519531 728.742188 408.507812 728.761719 408.5 728.78125 C 408.460938 728.828125 408.414062 728.871094 408.382812 728.921875 C 406.78125 731.378906 405.179688 733.839844 403.582031 736.296875 C 403.351562 736.65625 403.121094 737.015625 402.855469 737.429688 L 416.28125 737.429688 C 416.472656 737.4375 416.664062 737.445312 416.859375 737.457031 C 416.132812 743.730469 415.40625 750 414.683594 756.277344 L 432.785156 728.742188" fill="#d7b56c"/></svg>