<svg version="1.0" preserveAspectRatio="xMidYMid meet" viewBox="351.67259786476865 659.51997023 109.53736654804271 123.83999440999999" zoomAndPan="magnify" xmlns:xlink="http://www.w3.org/1999/xlink" xmlns="http://www.w3.org/2000/svg" style="max-height: 500px" width="109.53736654804271" height="123.83999440999999"><defs><clipPath id="8cb9d5393b"><path clip-rule="nonzero" d="M 353.800781 668.796875 L 456.546875 668.796875 L 456.546875 771.546875 L 353.800781 771.546875 Z M 353.800781 668.796875"/></clipPath></defs><g clip-path="url(#8cb9d5393b)"><path fill-rule="nonzero" fill-opacity="1" d="M 447.007812 771.195312 L 362.988281 771.195312 C 362.386719 771.195312 361.789062 771.136719 361.199219 771.019531 C 360.605469 770.898438 360.03125 770.726562 359.472656 770.496094 C 358.917969 770.261719 358.386719 769.980469 357.886719 769.644531 C 357.382812 769.308594 356.921875 768.929688 356.492188 768.5 C 356.066406 768.074219 355.6875 767.609375 355.351562 767.109375 C 355.015625 766.609375 354.730469 766.078125 354.5 765.519531 C 354.269531 764.964844 354.09375 764.390625 353.976562 763.796875 C 353.859375 763.207031 353.800781 762.609375 353.800781 762.003906 L 353.800781 677.988281 C 353.800781 677.386719 353.859375 676.789062 353.976562 676.195312 C 354.09375 675.605469 354.269531 675.03125 354.5 674.472656 C 354.730469 673.917969 355.015625 673.386719 355.351562 672.886719 C 355.6875 672.382812 356.066406 671.917969 356.492188 671.492188 C 356.921875 671.066406 357.382812 670.6875 357.886719 670.351562 C 358.386719 670.015625 358.917969 669.730469 359.472656 669.5 C 360.03125 669.269531 360.605469 669.09375 361.199219 668.976562 C 361.789062 668.859375 362.386719 668.800781 362.988281 668.796875 L 447.007812 668.796875 C 447.609375 668.800781 448.207031 668.859375 448.796875 668.976562 C 449.390625 669.09375 449.964844 669.269531 450.523438 669.5 C 451.078125 669.730469 451.609375 670.015625 452.109375 670.351562 C 452.613281 670.6875 453.074219 671.066406 453.503906 671.492188 C 453.929688 671.917969 454.308594 672.382812 454.644531 672.886719 C 454.980469 673.386719 455.265625 673.917969 455.496094 674.472656 C 455.726562 675.03125 455.902344 675.605469 456.019531 676.195312 C 456.136719 676.789062 456.195312 677.386719 456.195312 677.988281 L 456.195312 762.003906 C 456.195312 762.609375 456.136719 763.207031 456.019531 763.796875 C 455.902344 764.390625 455.726562 764.964844 455.496094 765.519531 C 455.265625 766.078125 454.980469 766.609375 454.644531 767.109375 C 454.308594 767.609375 453.929688 768.074219 453.503906 768.5 C 453.074219 768.929688 452.613281 769.308594 452.109375 769.644531 C 451.609375 769.980469 451.078125 770.261719 450.523438 770.496094 C 449.964844 770.726562 449.390625 770.898438 448.796875 771.019531 C 448.207031 771.136719 447.609375 771.195312 447.007812 771.195312 Z M 362.988281 672.261719 C 362.613281 672.261719 362.242188 672.296875 361.871094 672.371094 C 361.503906 672.445312 361.144531 672.554688 360.796875 672.699219 C 360.453125 672.84375 360.121094 673.019531 359.808594 673.226562 C 359.496094 673.4375 359.207031 673.675781 358.941406 673.941406 C 358.675781 674.207031 358.4375 674.496094 358.230469 674.808594 C 358.019531 675.121094 357.84375 675.449219 357.699219 675.796875 C 357.554688 676.144531 357.445312 676.503906 357.371094 676.871094 C 357.300781 677.242188 357.261719 677.613281 357.261719 677.988281 L 357.261719 762.003906 C 357.261719 762.382812 357.300781 762.753906 357.371094 763.121094 C 357.445312 763.492188 357.554688 763.847656 357.699219 764.195312 C 357.84375 764.542969 358.019531 764.875 358.230469 765.1875 C 358.4375 765.5 358.675781 765.789062 358.941406 766.054688 C 359.207031 766.320312 359.496094 766.558594 359.808594 766.765625 C 360.121094 766.976562 360.453125 767.152344 360.796875 767.296875 C 361.144531 767.441406 361.503906 767.550781 361.871094 767.621094 C 362.242188 767.695312 362.613281 767.734375 362.988281 767.734375 L 447.007812 767.734375 C 447.382812 767.734375 447.753906 767.695312 448.125 767.621094 C 448.492188 767.550781 448.851562 767.441406 449.199219 767.296875 C 449.542969 767.152344 449.875 766.976562 450.1875 766.765625 C 450.5 766.558594 450.789062 766.320312 451.054688 766.054688 C 451.320312 765.789062 451.558594 765.5 451.765625 765.1875 C 451.976562 764.875 452.152344 764.542969 452.296875 764.195312 C 452.441406 763.847656 452.550781 763.492188 452.625 763.121094 C 452.695312 762.753906 452.734375 762.382812 452.734375 762.003906 L 452.734375 677.988281 C 452.734375 677.613281 452.695312 677.242188 452.625 676.871094 C 452.550781 676.503906 452.441406 676.144531 452.296875 675.796875 C 452.152344 675.449219 451.976562 675.121094 451.765625 674.808594 C 451.558594 674.496094 451.320312 674.207031 451.054688 673.941406 C 450.789062 673.675781 450.5 673.4375 450.1875 673.226562 C 449.875 673.019531 449.542969 672.84375 449.199219 672.699219 C 448.851562 672.554688 448.492188 672.445312 448.125 672.371094 C 447.753906 672.296875 447.382812 672.261719 447.007812 672.261719 Z M 362.988281 672.261719" fill="#224d31"/></g><path fill-rule="nonzero" fill-opacity="1" d="M 443.171875 763.4375 L 366.824219 763.4375 C 366.476562 763.4375 366.132812 763.40625 365.796875 763.335938 C 365.457031 763.269531 365.128906 763.167969 364.808594 763.035156 C 364.488281 762.902344 364.1875 762.742188 363.898438 762.550781 C 363.609375 762.359375 363.34375 762.140625 363.101562 761.894531 C 362.855469 761.652344 362.636719 761.382812 362.445312 761.097656 C 362.253906 760.808594 362.089844 760.507812 361.960938 760.1875 C 361.828125 759.867188 361.726562 759.539062 361.660156 759.199219 C 361.589844 758.859375 361.558594 758.519531 361.554688 758.171875 L 361.554688 681.820312 C 361.558594 681.476562 361.589844 681.132812 361.660156 680.796875 C 361.726562 680.457031 361.828125 680.128906 361.960938 679.808594 C 362.089844 679.488281 362.253906 679.183594 362.445312 678.898438 C 362.636719 678.609375 362.855469 678.34375 363.101562 678.101562 C 363.34375 677.855469 363.609375 677.636719 363.898438 677.445312 C 364.1875 677.253906 364.488281 677.089844 364.808594 676.957031 C 365.128906 676.828125 365.457031 676.726562 365.796875 676.660156 C 366.132812 676.589844 366.476562 676.554688 366.824219 676.554688 L 443.171875 676.554688 C 443.519531 676.554688 443.863281 676.589844 444.199219 676.660156 C 444.539062 676.726562 444.867188 676.828125 445.1875 676.957031 C 445.507812 677.089844 445.808594 677.253906 446.097656 677.445312 C 446.386719 677.636719 446.652344 677.855469 446.894531 678.101562 C 447.140625 678.34375 447.359375 678.609375 447.550781 678.898438 C 447.742188 679.183594 447.90625 679.488281 448.035156 679.808594 C 448.167969 680.128906 448.269531 680.457031 448.335938 680.796875 C 448.40625 681.132812 448.4375 681.476562 448.441406 681.820312 L 448.441406 758.171875 C 448.4375 758.519531 448.40625 758.859375 448.335938 759.199219 C 448.269531 759.539062 448.167969 759.867188 448.035156 760.1875 C 447.90625 760.507812 447.742188 760.808594 447.550781 761.097656 C 447.359375 761.382812 447.140625 761.652344 446.894531 761.894531 C 446.652344 762.140625 446.386719 762.359375 446.097656 762.550781 C 445.808594 762.742188 445.507812 762.902344 445.1875 763.035156 C 444.867188 763.167969 444.539062 763.269531 444.199219 763.335938 C 443.863281 763.40625 443.519531 763.4375 443.171875 763.4375 Z M 366.824219 680.019531 C 366.582031 680.019531 366.355469 680.066406 366.132812 680.15625 C 365.910156 680.25 365.71875 680.378906 365.546875 680.546875 C 365.378906 680.714844 365.25 680.910156 365.15625 681.132812 C 365.066406 681.351562 365.019531 681.582031 365.019531 681.820312 L 365.019531 758.171875 C 365.019531 758.414062 365.066406 758.640625 365.15625 758.863281 C 365.25 759.082031 365.378906 759.277344 365.546875 759.449219 C 365.71875 759.617188 365.910156 759.746094 366.132812 759.839844 C 366.355469 759.929688 366.582031 759.976562 366.824219 759.976562 L 443.171875 759.976562 C 443.414062 759.976562 443.640625 759.929688 443.863281 759.839844 C 444.085938 759.746094 444.277344 759.617188 444.449219 759.449219 C 444.617188 759.277344 444.746094 759.082031 444.839844 758.863281 C 444.929688 758.640625 444.976562 758.414062 444.976562 758.171875 L 444.976562 681.820312 C 444.976562 681.582031 444.929688 681.351562 444.839844 681.132812 C 444.746094 680.910156 444.617188 680.714844 444.449219 680.546875 C 444.277344 680.378906 444.085938 680.25 443.863281 680.15625 C 443.640625 680.066406 443.414062 680.019531 443.171875 680.019531 Z M 366.824219 680.019531" fill="#224d31"/><path fill-rule="nonzero" fill-opacity="1" d="M 381.527344 756.242188 L 372.527344 756.242188 C 372.300781 756.242188 372.078125 756.199219 371.867188 756.113281 C 371.652344 756.023438 371.464844 755.898438 371.304688 755.738281 C 371.140625 755.574219 371.015625 755.386719 370.929688 755.175781 C 370.839844 754.964844 370.796875 754.742188 370.796875 754.511719 L 370.796875 705.015625 C 370.796875 704.785156 370.839844 704.566406 370.929688 704.355469 C 371.015625 704.140625 371.140625 703.953125 371.304688 703.792969 C 371.464844 703.628906 371.652344 703.503906 371.867188 703.417969 C 372.078125 703.328125 372.300781 703.285156 372.527344 703.285156 L 381.527344 703.285156 C 381.757812 703.285156 381.976562 703.328125 382.191406 703.417969 C 382.402344 703.503906 382.589844 703.628906 382.753906 703.792969 C 382.914062 703.953125 383.039062 704.140625 383.128906 704.355469 C 383.214844 704.566406 383.257812 704.785156 383.257812 705.015625 L 383.257812 754.511719 C 383.257812 754.742188 383.214844 754.964844 383.128906 755.175781 C 383.039062 755.386719 382.914062 755.574219 382.753906 755.738281 C 382.589844 755.898438 382.402344 756.023438 382.191406 756.113281 C 381.976562 756.199219 381.757812 756.242188 381.527344 756.242188 Z M 374.261719 752.78125 L 379.796875 752.78125 L 379.796875 706.746094 L 374.261719 706.746094 Z M 376.824219 698.367188 C 375.855469 698.378906 374.925781 698.199219 374.03125 697.824219 C 373.136719 697.453125 372.351562 696.917969 371.679688 696.222656 C 371.023438 695.535156 370.523438 694.75 370.175781 693.863281 C 369.832031 692.980469 369.664062 692.0625 369.671875 691.113281 C 369.671875 686.917969 372.835938 683.757812 377.027344 683.757812 C 381.222656 683.757812 384.269531 686.835938 384.28125 691.085938 C 384.339844 693.027344 383.664062 694.835938 382.371094 696.167969 C 381.007812 697.582031 379.027344 698.363281 376.824219 698.363281 Z M 377.027344 687.21875 C 374.773438 687.21875 373.136719 688.855469 373.136719 691.113281 C 373.136719 693.308594 374.6875 694.902344 376.824219 694.902344 C 378.101562 694.902344 379.160156 694.507812 379.882812 693.761719 C 380.53125 693.089844 380.855469 692.195312 380.820312 691.171875 C 380.820312 691.152344 380.820312 691.132812 380.820312 691.113281 C 380.820312 688.742188 379.332031 687.214844 377.027344 687.214844 Z M 384.28125 691.113281 Z M 384.28125 691.113281" fill="#224d31"/><path fill-rule="nonzero" fill-opacity="1" d="M 438.589844 756.242188 L 429.59375 756.242188 C 429.363281 756.242188 429.140625 756.199219 428.929688 756.113281 C 428.71875 756.023438 428.53125 755.898438 428.367188 755.738281 C 428.207031 755.574219 428.082031 755.386719 427.992188 755.175781 C 427.90625 754.964844 427.859375 754.742188 427.859375 754.511719 L 427.859375 725.980469 C 427.859375 722.042969 427.085938 718.816406 425.617188 716.648438 C 423.992188 714.25 421.546875 713.089844 418.140625 713.089844 C 412.632812 713.089844 408.941406 717.09375 407.726562 721.066406 C 407.71875 721.097656 407.707031 721.125 407.699219 721.152344 C 407.375 722.042969 407.191406 723.355469 407.191406 724.753906 L 407.191406 754.511719 C 407.191406 754.742188 407.144531 754.964844 407.058594 755.175781 C 406.96875 755.386719 406.84375 755.574219 406.683594 755.738281 C 406.519531 755.898438 406.332031 756.023438 406.121094 756.113281 C 405.910156 756.199219 405.6875 756.242188 405.457031 756.242188 L 396.464844 756.242188 C 396.234375 756.242188 396.015625 756.199219 395.800781 756.113281 C 395.589844 756.023438 395.402344 755.898438 395.242188 755.738281 C 395.078125 755.574219 394.953125 755.386719 394.867188 755.175781 C 394.777344 754.964844 394.734375 754.742188 394.734375 754.511719 L 394.734375 718.414062 C 394.734375 712.890625 394.609375 708.921875 394.328125 705.144531 C 394.3125 704.90625 394.34375 704.671875 394.421875 704.445312 C 394.503906 704.21875 394.625 704.015625 394.789062 703.839844 C 394.953125 703.664062 395.148438 703.527344 395.367188 703.433594 C 395.589844 703.335938 395.820312 703.289062 396.058594 703.289062 L 404.039062 703.289062 C 404.257812 703.289062 404.46875 703.328125 404.675781 703.410156 C 404.878906 703.492188 405.0625 703.605469 405.222656 703.757812 C 405.386719 703.910156 405.511719 704.082031 405.605469 704.28125 C 405.699219 704.484375 405.753906 704.691406 405.769531 704.914062 L 405.992188 708.519531 C 407.148438 707.285156 408.4375 706.21875 409.867188 705.320312 C 413.144531 703.253906 417.039062 702.164062 421.121094 702.164062 C 423.851562 702.164062 429.105469 702.761719 433.589844 706.773438 C 438.070312 710.78125 440.339844 716.898438 440.339844 724.964844 L 440.339844 754.519531 C 440.339844 754.75 440.292969 754.972656 440.203125 755.183594 C 440.113281 755.394531 439.988281 755.582031 439.824219 755.746094 C 439.660156 755.90625 439.472656 756.03125 439.257812 756.117188 C 439.042969 756.203125 438.820312 756.246094 438.589844 756.242188 Z M 431.324219 752.78125 L 436.859375 752.78125 L 436.859375 724.957031 C 436.859375 717.917969 434.976562 712.667969 431.261719 709.347656 C 427.503906 705.984375 422.90625 705.621094 421.105469 705.621094 C 413.394531 705.621094 408.390625 709.949219 406.277344 713.996094 C 406.128906 714.28125 405.914062 714.507812 405.640625 714.675781 C 405.363281 714.84375 405.066406 714.925781 404.742188 714.925781 L 404.539062 714.925781 C 404.316406 714.925781 404.105469 714.886719 403.898438 714.804688 C 403.695312 714.726562 403.511719 714.609375 403.351562 714.457031 C 403.1875 714.308594 403.0625 714.132812 402.96875 713.933594 C 402.875 713.734375 402.820312 713.523438 402.804688 713.304688 L 402.394531 706.75 L 397.902344 706.75 C 398.101562 710.078125 398.195312 713.691406 398.195312 718.414062 L 398.195312 752.78125 L 403.734375 752.78125 L 403.734375 724.753906 C 403.734375 722.960938 403.980469 721.28125 404.433594 720.011719 C 405.347656 717.085938 407 714.65625 409.382812 712.730469 C 410.621094 711.722656 411.992188 710.953125 413.496094 710.421875 C 415.003906 709.886719 416.554688 709.621094 418.148438 709.625 C 422.660156 709.625 426.238281 711.382812 428.492188 714.707031 C 430.378906 717.488281 431.335938 721.28125 431.335938 725.980469 Z M 431.324219 752.78125" fill="#224d31"/></svg>