<svg version="1.0" preserveAspectRatio="xMidYMid meet" viewBox="363.20284697508896 685.43996906 80.71174377224199 60.479997270000005" zoomAndPan="magnify" xmlns:xlink="http://www.w3.org/1999/xlink" xmlns="http://www.w3.org/2000/svg" style="max-height: 500px" width="80.71174377224199" height="60.479997270000005"><defs><clipPath id="49cbff663c"><path clip-rule="nonzero" d="M 382 703.285156 L 428 703.285156 L 428 722 L 382 722 Z M 382 703.285156"/></clipPath><clipPath id="ed4bc6078f"><path clip-rule="nonzero" d="M 381.582031 708 L 428.082031 708 L 428.082031 737 L 381.582031 737 Z M 381.582031 708"/></clipPath></defs><g clip-path="url(#49cbff663c)"><path fill-rule="nonzero" fill-opacity="1" d="M 401.933594 720.542969 C 402.371094 720.882812 402.851562 721.136719 403.375 721.316406 C 403.902344 721.496094 404.4375 721.582031 404.992188 721.582031 C 405.546875 721.582031 406.085938 721.496094 406.609375 721.316406 C 407.132812 721.136719 407.613281 720.882812 408.050781 720.542969 L 427.46875 705.414062 C 427.003906 704.746094 426.40625 704.226562 425.683594 703.847656 C 424.960938 703.472656 424.191406 703.285156 423.378906 703.285156 L 386.613281 703.285156 C 385.75 703.289062 384.9375 703.5 384.183594 703.921875 C 383.429688 704.34375 382.824219 704.921875 382.371094 705.65625 Z M 401.933594 720.542969" fill="#e4c78d"/></g><g clip-path="url(#ed4bc6078f)"><path fill-rule="nonzero" fill-opacity="1" d="M 410.097656 723.191406 C 409.367188 723.753906 408.566406 724.183594 407.695312 724.480469 C 406.820312 724.777344 405.925781 724.925781 405.003906 724.925781 C 404.082031 724.925781 403.183594 724.777344 402.3125 724.480469 C 401.4375 724.183594 400.636719 723.753906 399.90625 723.191406 L 381.601562 709.273438 L 381.601562 731.695312 C 381.601562 732.023438 381.632812 732.347656 381.695312 732.671875 C 381.761719 732.996094 381.855469 733.308594 381.980469 733.613281 C 382.109375 733.917969 382.261719 734.207031 382.445312 734.480469 C 382.628906 734.753906 382.835938 735.007812 383.070312 735.238281 C 383.300781 735.472656 383.554688 735.679688 383.828125 735.863281 C 384.101562 736.046875 384.390625 736.199219 384.695312 736.324219 C 385 736.453125 385.3125 736.546875 385.636719 736.609375 C 385.957031 736.675781 386.285156 736.707031 386.613281 736.707031 L 423.378906 736.707031 C 423.707031 736.707031 424.03125 736.675781 424.355469 736.609375 C 424.679688 736.546875 424.992188 736.453125 425.296875 736.324219 C 425.601562 736.199219 425.890625 736.046875 426.164062 735.863281 C 426.4375 735.679688 426.691406 735.472656 426.921875 735.238281 C 427.15625 735.007812 427.363281 734.753906 427.546875 734.480469 C 427.730469 734.207031 427.882812 733.917969 428.007812 733.613281 C 428.136719 733.308594 428.230469 732.996094 428.292969 732.671875 C 428.359375 732.347656 428.390625 732.023438 428.390625 731.695312 L 428.390625 708.941406 Z M 410.097656 723.191406" fill="#e4c78d"/></g></svg>