<svg xmlns="http://www.w3.org/2000/svg" xmlns:xlink="http://www.w3.org/1999/xlink" zoomAndPan="magnify" preserveAspectRatio="xMidYMid meet" version="1.0" viewBox="280.03 507.43 230.48 265.17"><defs><clipPath id="ce15e04832"><path d="M 280.03125 507.433594 L 510.28125 507.433594 L 510.28125 772.605469 L 280.03125 772.605469 Z M 280.03125 507.433594 " clip-rule="nonzero"/></clipPath></defs><g clip-path="url(#ce15e04832)"><path fill="#296b40" d="M 455.972656 520.625 C 433.535156 520.625 412.0625 515.949219 395.269531 507.4375 C 378.480469 515.945312 357.003906 520.625 334.5625 520.625 C 314.796875 520.625 295.765625 516.992188 280.03125 510.304688 L 280.03125 620.375 C 280.03125 692.015625 331.640625 760.066406 395.269531 772.605469 C 458.898438 760.066406 510.507812 692.015625 510.507812 620.375 L 510.507812 510.304688 C 494.773438 516.992188 475.742188 520.625 455.972656 520.625 " fill-opacity="1" fill-rule="nonzero"/></g><path fill="#ffffff" d="M 372.652344 684.101562 L 324.644531 636.097656 L 339.027344 621.714844 L 372.652344 655.332031 L 451.507812 576.476562 L 465.894531 590.859375 L 372.652344 684.101562 " fill-opacity="1" fill-rule="nonzero"/><path fill="#224d31" d="M 441.328125 752.78125 C 478.351562 727.339844 505.242188 682.675781 509.8125 634.777344 L 465.894531 590.859375 L 372.652344 684.101562 L 441.328125 752.78125 " fill-opacity="1" fill-rule="nonzero"/></svg>