<svg version="1.0" preserveAspectRatio="xMidYMid meet" viewBox="351.67259786476865 659.51997023 109.53736654804271 123.83999440999999" zoomAndPan="magnify" xmlns:xlink="http://www.w3.org/1999/xlink" xmlns="http://www.w3.org/2000/svg" style="max-height: 500px" width="109.53736654804271" height="123.83999440999999"><defs><clipPath id="469b89f3c5"><path clip-rule="nonzero" d="M 377.261719 661.261719 L 432.761719 661.261719 L 432.761719 779 L 377.261719 779 Z M 377.261719 661.261719"/></clipPath></defs><g clip-path="url(#469b89f3c5)"><path fill-rule="nonzero" fill-opacity="1" d="M 419.9375 680.765625 L 432.738281 680.765625 L 432.738281 661.46875 L 416.394531 661.46875 L 416.394531 661.542969 C 394.90625 662.328125 390.476562 674.367188 390.109375 687.089844 L 390.058594 687.089844 L 390.058594 700.480469 L 377.261719 700.480469 L 377.261719 719.800781 L 390.058594 719.800781 L 390.058594 778.523438 L 413.023438 778.523438 L 413.023438 719.800781 L 429.488281 719.800781 L 432.738281 700.480469 L 413.023438 700.480469 L 413.023438 688.492188 C 413.023438 684.234375 415.878906 680.765625 419.9375 680.765625 Z M 419.9375 680.765625" fill="#224d31"/></g></svg>