<svg version="1.0" preserveAspectRatio="xMidYMid meet" viewBox="351.67259786476865 659.51997023 109.53736654804271 123.83999440999999" zoomAndPan="magnify" xmlns:xlink="http://www.w3.org/1999/xlink" xmlns="http://www.w3.org/2000/svg" style="max-height: 500px" width="109.53736654804271" height="123.83999440999999"><defs><clipPath id="08a0adefb4"><path clip-rule="nonzero" d="M 350.839844 665.839844 L 458.839844 665.839844 L 458.839844 773.839844 L 350.839844 773.839844 Z M 350.839844 665.839844"/></clipPath></defs><g clip-path="url(#08a0adefb4)"><path fill-rule="evenodd" fill-opacity="1" d="M 428.996094 774.15625 L 380.996094 774.15625 C 364.429688 774.15625 350.839844 760.5625 350.839844 743.996094 L 350.839844 695.996094 C 350.839844 679.429688 364.429688 665.839844 380.996094 665.839844 L 428.996094 665.839844 C 445.5625 665.839844 459.15625 679.429688 459.15625 695.996094 L 459.15625 743.996094 C 459.15625 760.5625 445.5625 774.15625 428.996094 774.15625 Z M 380.996094 672.636719 C 368.253906 672.636719 357.636719 683.253906 357.636719 695.996094 L 357.636719 743.996094 C 357.636719 756.738281 368.253906 767.359375 380.996094 767.359375 L 428.996094 767.359375 C 441.738281 767.359375 452.359375 756.738281 452.359375 743.996094 L 452.359375 695.996094 C 452.359375 683.253906 441.738281 672.636719 428.996094 672.636719 Z M 380.996094 672.636719" fill="#224d31"/></g><path fill-rule="evenodd" fill-opacity="1" d="M 404.996094 738.6875 C 394.800781 738.6875 386.308594 730.191406 386.308594 719.996094 C 386.308594 709.800781 394.800781 701.308594 404.996094 701.308594 C 415.191406 701.308594 423.6875 709.800781 423.6875 719.996094 C 423.6875 730.191406 415.191406 738.6875 404.996094 738.6875 Z M 404.996094 708.101562 C 398.414062 708.101562 393.101562 713.414062 393.101562 719.996094 C 393.101562 726.582031 398.414062 731.890625 404.996094 731.890625 C 411.582031 731.890625 416.890625 726.582031 416.890625 719.996094 C 416.890625 713.414062 411.582031 708.101562 404.996094 708.101562 Z M 404.996094 708.101562" fill="#224d31"/><path fill-rule="evenodd" fill-opacity="1" d="M 404.996094 750.582031 C 388.21875 750.582031 374.414062 736.773438 374.414062 719.996094 C 374.414062 703.21875 388.21875 689.414062 404.996094 689.414062 C 421.777344 689.414062 435.582031 703.21875 435.582031 719.996094 C 435.582031 736.773438 421.777344 750.582031 404.996094 750.582031 Z M 404.996094 696.210938 C 391.828125 696.210938 381.210938 706.828125 381.210938 719.996094 C 381.210938 733.164062 391.828125 743.785156 404.996094 743.785156 C 418.164062 743.785156 428.785156 733.164062 428.785156 719.996094 C 428.785156 706.828125 418.164062 696.210938 404.996094 696.210938 Z M 404.996094 696.210938" fill="#224d31"/><path fill-rule="evenodd" fill-opacity="1" d="M 379.933594 690.898438 L 372.503906 690.898438 C 370.589844 690.898438 369.105469 689.414062 369.105469 687.5 C 369.105469 685.589844 370.589844 684.105469 372.503906 684.105469 L 379.933594 684.105469 C 381.847656 684.105469 383.332031 685.589844 383.332031 687.5 C 383.332031 689.414062 381.847656 690.898438 379.933594 690.898438 Z M 379.933594 690.898438" fill="#224d31"/></svg>