<svg version="1.0" preserveAspectRatio="xMidYMid meet" viewBox="363.20284697508896 676.7999694499999 80.71174377224199 83.51999623" zoomAndPan="magnify" xmlns:xlink="http://www.w3.org/1999/xlink" xmlns="http://www.w3.org/2000/svg" style="max-height: 500px" width="80.71174377224199" height="83.51999623"><defs><clipPath id="885061f0fc"><path clip-rule="nonzero" d="M 373.542969 688.542969 L 436.542969 688.542969 L 436.542969 751.542969 L 373.542969 751.542969 Z M 373.542969 688.542969"/></clipPath></defs><path fill-rule="nonzero" fill-opacity="1" d="M 419.515625 734.136719 C 418.390625 735.261719 416.519531 736.339844 415.425781 736.496094 C 414.222656 736.664062 413.015625 736.6875 411.835938 736.558594 C 409.195312 736.273438 406.582031 735.253906 403.847656 733.441406 C 401.828125 732.105469 399.738281 730.332031 397.273438 727.863281 C 396.804688 727.394531 396.316406 726.890625 395.824219 726.355469 C 392.445312 722.707031 386.992188 715.695312 388.457031 709.769531 C 388.75 708.582031 389.316406 707.464844 390.148438 706.4375 C 390.382812 706.140625 390.648438 705.84375 390.9375 705.554688 L 393.058594 703.40625 L 397.132812 707.484375 C 397.546875 707.894531 397.773438 708.445312 397.773438 709.035156 C 397.773438 709.625 397.546875 710.179688 397.132812 710.589844 L 396.269531 711.453125 C 394.457031 713.269531 394.164062 716.121094 395.574219 718.238281 C 398.746094 723.007812 402.652344 726.835938 407.515625 729.933594 C 409.21875 731.015625 411.675781 730.742188 413.113281 729.304688 L 414.480469 727.9375 C 414.632812 727.78125 414.8125 727.652344 415.003906 727.546875 C 415.851562 727.101562 416.914062 727.261719 417.585938 727.9375 L 421.652344 732 Z M 424.097656 730.242188 L 419.691406 725.835938 C 418.105469 724.25 415.609375 723.871094 413.617188 724.921875 C 413.15625 725.164062 412.738281 725.472656 412.378906 725.835938 L 411.011719 727.203125 C 410.558594 727.652344 409.636719 727.761719 409.109375 727.425781 C 404.605469 724.554688 400.988281 721.011719 398.046875 716.59375 C 397.417969 715.648438 397.554688 714.371094 398.371094 713.554688 L 399.234375 712.691406 C 400.207031 711.71875 400.746094 710.421875 400.746094 709.039062 C 400.746094 707.652344 400.210938 706.355469 399.234375 705.382812 L 394.828125 700.976562 C 394.59375 700.742188 394.175781 700.449219 393.503906 700.367188 C 392.628906 700.257812 391.703125 700.585938 391.050781 701.234375 L 388.835938 703.453125 C 388.46875 703.820312 388.125 704.203125 387.824219 704.582031 C 386.730469 705.9375 385.972656 707.445312 385.570312 709.058594 C 383.863281 715.972656 389.019531 723.378906 393.640625 728.371094 C 394.160156 728.933594 394.671875 729.46875 395.171875 729.964844 C 397.78125 732.574219 400.019531 734.46875 402.207031 735.917969 C 405.347656 738 408.390625 739.175781 411.515625 739.511719 C 412.128906 739.578125 412.746094 739.613281 413.367188 739.613281 C 414.191406 739.613281 415.019531 739.554688 415.84375 739.4375 C 417.8125 739.160156 420.238281 737.617188 421.617188 736.238281 L 423.835938 734.019531 C 424.484375 733.367188 424.8125 732.449219 424.703125 731.570312 C 424.636719 731.027344 424.433594 730.582031 424.097656 730.242188" fill="#e4c78d"/><g clip-path="url(#885061f0fc)"><path fill-rule="nonzero" fill-opacity="1" d="M 404.980469 691.554688 C 389.304688 691.554688 376.554688 704.304688 376.554688 719.980469 C 376.554688 735.65625 389.304688 748.40625 404.980469 748.40625 C 420.65625 748.40625 433.40625 735.65625 433.40625 719.980469 C 433.40625 704.304688 420.65625 691.554688 404.980469 691.554688 Z M 404.980469 751.425781 C 387.640625 751.425781 373.535156 737.320312 373.535156 719.980469 C 373.535156 702.640625 387.640625 688.535156 404.980469 688.535156 C 422.320312 688.535156 436.425781 702.640625 436.425781 719.980469 C 436.425781 737.320312 422.320312 751.425781 404.980469 751.425781" fill="#e4c78d"/></g></svg>