<svg version="1.0" preserveAspectRatio="xMidYMid meet" viewBox="371.8505338078292 682.55996919 69.1814946619217 71.99999675000001" zoomAndPan="magnify" xmlns:xlink="http://www.w3.org/1999/xlink" xmlns="http://www.w3.org/2000/svg" style="max-height: 500px" width="69.1814946619217" height="71.99999675000001"><defs><clipPath id="af410a0774"><path clip-rule="nonzero" d="M 390.269531 726 L 419.519531 726 L 419.519531 734.519531 L 390.269531 734.519531 Z M 390.269531 726"/></clipPath><clipPath id="2cb1b8fe89"><path clip-rule="nonzero" d="M 395 705.269531 L 415 705.269531 L 415 733 L 395 733 Z M 395 705.269531"/></clipPath></defs><g clip-path="url(#af410a0774)"><path fill-rule="evenodd" fill-opacity="1" d="M 410.941406 726.378906 C 410.671875 726.34375 410.429688 726.539062 410.398438 726.808594 C 410.363281 727.078125 410.558594 727.320312 410.828125 727.351562 C 415.988281 727.960938 418.738281 729.597656 418.738281 730.546875 C 418.738281 731.878906 413.507812 733.738281 404.996094 733.738281 C 396.480469 733.738281 391.25 731.878906 391.25 730.546875 C 391.25 729.597656 394 727.960938 399.160156 727.351562 C 399.429688 727.320312 399.625 727.078125 399.59375 726.808594 C 399.558594 726.539062 399.316406 726.34375 399.046875 726.378906 C 393.878906 726.988281 390.269531 728.699219 390.269531 730.546875 C 390.269531 732.621094 395.328125 734.71875 404.996094 734.71875 C 414.660156 734.71875 419.71875 732.621094 419.71875 730.546875 C 419.71875 728.699219 416.109375 726.988281 410.941406 726.378906" fill="#fdfdfd"/></g><g clip-path="url(#2cb1b8fe89)"><path fill-rule="evenodd" fill-opacity="1" d="M 404.90625 732.144531 L 412.4375 721.269531 C 415.261719 717.503906 414.851562 711.316406 411.5625 708.027344 C 409.785156 706.25 407.421875 705.269531 404.90625 705.269531 C 402.394531 705.269531 400.03125 706.25 398.253906 708.027344 C 394.960938 711.316406 394.554688 717.503906 397.367188 721.253906 Z M 404.996094 711.160156 C 406.890625 711.160156 408.429688 712.699219 408.429688 714.59375 C 408.429688 716.488281 406.890625 718.03125 404.996094 718.03125 C 403.101562 718.03125 401.558594 716.488281 401.558594 714.59375 C 401.558594 712.699219 403.101562 711.160156 404.996094 711.160156 Z M 404.996094 711.160156" fill="#fdfdfd"/></g></svg>