<svg version="1.0" preserveAspectRatio="xMidYMid meet" viewBox="337.2597864768683 639.3599711400001 138.3629893238434 158.39999285000002" zoomAndPan="magnify" xmlns:xlink="http://www.w3.org/1999/xlink" xmlns="http://www.w3.org/2000/svg" style="max-height: 500px" width="138.3629893238434" height="158.39999285000002"><defs><clipPath id="3b92948374"><path clip-rule="nonzero" d="M 406 671.214844 L 453.71875 671.214844 L 453.71875 719 L 406 719 Z M 406 671.214844"/></clipPath></defs><path fill-rule="nonzero" fill-opacity="1" d="M 436.898438 717.484375 C 436.679688 717.523438 436.472656 717.605469 436.285156 717.726562 C 436.097656 717.847656 435.9375 718 435.8125 718.183594 C 435.683594 718.367188 435.59375 718.570312 435.546875 718.789062 C 435.5 719.007812 435.496094 719.226562 435.535156 719.449219 C 435.757812 720.671875 435.914062 721.902344 436.011719 723.144531 C 436.105469 724.382812 436.136719 725.625 436.105469 726.867188 C 436.074219 728.109375 435.980469 729.347656 435.824219 730.582031 C 435.667969 731.816406 435.445312 733.035156 435.164062 734.246094 C 434.882812 735.457031 434.539062 736.652344 434.136719 737.828125 C 433.734375 739.003906 433.269531 740.15625 432.75 741.285156 C 432.226562 742.414062 431.652344 743.511719 431.015625 744.582031 C 430.382812 745.652344 429.699219 746.6875 428.960938 747.6875 C 428.21875 748.6875 427.433594 749.648438 426.59375 750.566406 C 425.757812 751.488281 424.878906 752.363281 423.953125 753.191406 C 423.027344 754.019531 422.058594 754.800781 421.054688 755.53125 C 420.046875 756.265625 419.007812 756.941406 417.933594 757.566406 C 416.859375 758.191406 415.753906 758.761719 414.621094 759.273438 C 413.488281 759.785156 412.332031 760.238281 411.15625 760.632812 C 409.976562 761.027344 408.78125 761.363281 407.566406 761.636719 C 406.355469 761.910156 405.128906 762.117188 403.894531 762.265625 C 402.660156 762.414062 401.421875 762.5 400.179688 762.519531 C 398.9375 762.542969 397.695312 762.5 396.457031 762.394531 C 395.21875 762.289062 393.988281 762.121094 392.765625 761.890625 C 391.542969 761.660156 390.335938 761.371094 389.144531 761.015625 C 387.953125 760.664062 386.78125 760.25 385.632812 759.777344 C 384.480469 759.304688 383.359375 758.773438 382.261719 758.1875 C 381.167969 757.597656 380.105469 756.957031 379.074219 756.261719 C 378.042969 755.566406 377.050781 754.816406 376.097656 754.019531 C 375.144531 753.222656 374.230469 752.378906 373.363281 751.492188 C 372.496094 750.601562 371.675781 749.667969 370.902344 748.695312 C 370.128906 747.722656 369.40625 746.710938 368.738281 745.664062 C 368.066406 744.617188 367.453125 743.539062 366.890625 742.425781 C 366.332031 741.316406 365.828125 740.183594 365.386719 739.019531 C 364.941406 737.859375 364.558594 736.679688 364.234375 735.476562 C 363.910156 734.277344 363.648438 733.0625 363.449219 731.835938 C 363.246094 730.609375 363.109375 729.375 363.035156 728.132812 C 362.960938 726.894531 362.953125 725.652344 363.003906 724.410156 C 363.054688 723.167969 363.171875 721.929688 363.351562 720.699219 C 363.527344 719.46875 363.769531 718.25 364.074219 717.046875 C 364.375 715.839844 364.738281 714.652344 365.164062 713.484375 C 365.585938 712.316406 366.070312 711.171875 366.609375 710.050781 C 367.148438 708.929688 367.746094 707.84375 368.398438 706.785156 C 369.050781 705.722656 369.753906 704.703125 370.507812 703.714844 C 371.265625 702.726562 372.070312 701.78125 372.921875 700.875 C 373.773438 699.972656 374.671875 699.113281 375.609375 698.296875 C 376.550781 697.484375 377.53125 696.722656 378.546875 696.007812 C 379.566406 695.292969 380.617188 694.632812 381.703125 694.027344 C 382.789062 693.421875 383.902344 692.871094 385.042969 692.378906 C 386.183594 691.882812 387.347656 691.449219 388.535156 691.078125 C 389.71875 690.703125 390.921875 690.390625 392.136719 690.136719 C 393.355469 689.886719 394.582031 689.695312 395.820312 689.570312 C 397.054688 689.441406 398.296875 689.378906 399.539062 689.378906 C 400.882812 689.378906 402.21875 689.453125 403.554688 689.597656 C 403.777344 689.625 404 689.605469 404.214844 689.542969 C 404.433594 689.484375 404.628906 689.382812 404.804688 689.242188 C 404.980469 689.101562 405.125 688.933594 405.234375 688.734375 C 405.34375 688.539062 405.410156 688.328125 405.433594 688.101562 C 405.457031 687.878906 405.4375 687.65625 405.375 687.441406 C 405.3125 687.226562 405.210938 687.03125 405.066406 686.855469 C 404.925781 686.679688 404.753906 686.539062 404.558594 686.429688 C 404.359375 686.324219 404.148438 686.257812 403.921875 686.234375 C 402.464844 686.078125 401.003906 685.996094 399.539062 685.996094 C 398.183594 686 396.832031 686.070312 395.480469 686.207031 C 394.132812 686.347656 392.792969 686.554688 391.464844 686.832031 C 390.136719 687.105469 388.828125 687.449219 387.535156 687.859375 C 386.242188 688.269531 384.972656 688.742188 383.730469 689.28125 C 382.484375 689.820312 381.269531 690.417969 380.085938 691.082031 C 378.902344 691.746094 377.757812 692.464844 376.644531 693.246094 C 375.535156 694.023438 374.46875 694.859375 373.445312 695.746094 C 372.417969 696.632812 371.441406 697.574219 370.511719 698.558594 C 369.582031 699.546875 368.707031 700.582031 367.882812 701.65625 C 367.058594 702.734375 366.289062 703.851562 365.582031 705.007812 C 364.871094 706.160156 364.21875 707.351562 363.632812 708.570312 C 363.042969 709.792969 362.515625 711.042969 362.054688 712.316406 C 361.59375 713.59375 361.199219 714.886719 360.867188 716.203125 C 360.539062 717.519531 360.277344 718.847656 360.082031 720.191406 C 359.886719 721.53125 359.761719 722.878906 359.703125 724.234375 C 359.648438 725.589844 359.660156 726.945312 359.742188 728.300781 C 359.824219 729.652344 359.972656 731 360.191406 732.335938 C 360.410156 733.675781 360.695312 735 361.046875 736.308594 C 361.402344 737.617188 361.820312 738.90625 362.304688 740.171875 C 362.789062 741.441406 363.339844 742.679688 363.949219 743.890625 C 364.558594 745.101562 365.230469 746.277344 365.960938 747.417969 C 366.695312 748.5625 367.480469 749.664062 368.324219 750.726562 C 369.167969 751.789062 370.0625 752.804688 371.007812 753.777344 C 371.957031 754.746094 372.949219 755.667969 373.992188 756.535156 C 375.03125 757.40625 376.113281 758.222656 377.238281 758.980469 C 378.363281 759.738281 379.519531 760.4375 380.714844 761.082031 C 381.910156 761.722656 383.136719 762.300781 384.390625 762.816406 C 385.644531 763.332031 386.921875 763.785156 388.222656 764.167969 C 389.523438 764.554688 390.839844 764.875 392.171875 765.125 C 393.503906 765.378906 394.847656 765.5625 396.199219 765.675781 C 397.546875 765.792969 398.902344 765.835938 400.257812 765.8125 C 401.613281 765.789062 402.964844 765.699219 404.3125 765.539062 C 405.660156 765.378906 406.996094 765.148438 408.316406 764.851562 C 409.640625 764.554688 410.945312 764.191406 412.230469 763.761719 C 413.519531 763.332031 414.78125 762.835938 416.015625 762.277344 C 417.25 761.71875 418.457031 761.101562 419.628906 760.417969 C 420.800781 759.738281 421.9375 759 423.035156 758.203125 C 424.132812 757.40625 425.183594 756.554688 426.195312 755.648438 C 427.207031 754.746094 428.167969 753.792969 429.082031 752.789062 C 429.996094 751.785156 430.855469 750.742188 431.664062 749.648438 C 432.46875 748.558594 433.21875 747.433594 433.910156 746.265625 C 434.601562 745.097656 435.230469 743.898438 435.800781 742.667969 C 436.371094 741.4375 436.875 740.179688 437.316406 738.898438 C 437.761719 737.617188 438.136719 736.316406 438.445312 734.996094 C 438.753906 733.675781 438.992188 732.339844 439.167969 730.996094 C 439.339844 729.652344 439.441406 728.300781 439.476562 726.945312 C 439.511719 725.589844 439.480469 724.234375 439.375 722.882812 C 439.273438 721.53125 439.101562 720.1875 438.863281 718.851562 C 438.824219 718.628906 438.742188 718.425781 438.621094 718.238281 C 438.5 718.046875 438.347656 717.890625 438.164062 717.761719 C 437.980469 717.632812 437.777344 717.546875 437.558594 717.496094 C 437.339844 717.449219 437.121094 717.445312 436.898438 717.484375 Z M 436.898438 717.484375" fill="#d7b56c"/><path fill-rule="nonzero" fill-opacity="1" d="M 368.644531 725.949219 C 368.644531 724.9375 368.695312 723.929688 368.796875 722.921875 C 368.898438 721.917969 369.046875 720.917969 369.246094 719.925781 C 369.445312 718.933594 369.691406 717.953125 369.984375 716.988281 C 370.28125 716.019531 370.621094 715.066406 371.007812 714.132812 C 371.398438 713.199219 371.828125 712.289062 372.308594 711.394531 C 372.785156 710.503906 373.304688 709.636719 373.867188 708.796875 C 374.429688 707.957031 375.03125 707.144531 375.671875 706.363281 C 376.3125 705.582031 376.992188 704.832031 377.707031 704.117188 C 378.421875 703.402344 379.171875 702.726562 379.953125 702.082031 C 380.734375 701.441406 381.546875 700.839844 382.386719 700.277344 C 383.226562 699.714844 384.09375 699.195312 384.984375 698.71875 C 385.878906 698.242188 386.789062 697.808594 387.722656 697.421875 C 388.660156 697.03125 389.609375 696.691406 390.578125 696.398438 C 391.542969 696.101562 392.523438 695.855469 393.515625 695.65625 C 394.507812 695.460938 395.507812 695.308594 396.511719 695.210938 C 397.519531 695.109375 398.527344 695.058594 399.539062 695.058594 C 399.765625 695.058594 399.980469 695.015625 400.1875 694.929688 C 400.394531 694.84375 400.578125 694.71875 400.734375 694.5625 C 400.894531 694.402344 401.015625 694.21875 401.101562 694.011719 C 401.1875 693.804688 401.230469 693.589844 401.230469 693.367188 C 401.230469 693.140625 401.1875 692.925781 401.101562 692.71875 C 401.015625 692.511719 400.894531 692.328125 400.734375 692.171875 C 400.578125 692.011719 400.394531 691.890625 400.1875 691.804688 C 399.980469 691.71875 399.765625 691.675781 399.539062 691.675781 C 398.417969 691.675781 397.296875 691.730469 396.179688 691.839844 C 395.0625 691.949219 393.953125 692.117188 392.851562 692.335938 C 391.75 692.554688 390.664062 692.824219 389.589844 693.152344 C 388.511719 693.476562 387.457031 693.855469 386.421875 694.285156 C 385.382812 694.714844 384.367188 695.195312 383.378906 695.722656 C 382.390625 696.253906 381.425781 696.832031 380.492188 697.453125 C 379.558594 698.078125 378.660156 698.746094 377.792969 699.457031 C 376.921875 700.171875 376.09375 700.925781 375.296875 701.71875 C 374.503906 702.511719 373.75 703.34375 373.039062 704.210938 C 372.328125 705.078125 371.660156 705.980469 371.035156 706.914062 C 370.410156 707.847656 369.835938 708.808594 369.304688 709.800781 C 368.777344 710.789062 368.296875 711.804688 367.867188 712.839844 C 367.4375 713.878906 367.058594 714.933594 366.734375 716.007812 C 366.410156 717.085938 366.136719 718.171875 365.917969 719.273438 C 365.699219 720.375 365.535156 721.484375 365.425781 722.601562 C 365.3125 723.71875 365.257812 724.839844 365.257812 725.960938 C 365.257812 727.085938 365.316406 728.203125 365.425781 729.320312 C 365.535156 730.441406 365.699219 731.550781 365.917969 732.648438 C 366.136719 733.75 366.410156 734.839844 366.738281 735.914062 C 367.0625 736.988281 367.441406 738.042969 367.871094 739.082031 C 368.300781 740.117188 368.78125 741.132812 369.308594 742.121094 C 369.839844 743.113281 370.414062 744.074219 371.039062 745.007812 C 371.664062 745.941406 372.332031 746.84375 373.042969 747.710938 C 373.757812 748.578125 374.511719 749.410156 375.304688 750.203125 C 376.097656 750.996094 376.929688 751.75 377.796875 752.460938 C 378.664062 753.175781 379.566406 753.84375 380.5 754.464844 C 381.433594 755.089844 382.394531 755.664062 383.386719 756.195312 C 384.375 756.722656 385.390625 757.203125 386.425781 757.632812 C 387.464844 758.0625 388.519531 758.441406 389.59375 758.765625 C 390.671875 759.089844 391.757812 759.363281 392.859375 759.582031 C 393.960938 759.800781 395.070312 759.964844 396.1875 760.074219 C 397.304688 760.1875 398.425781 760.242188 399.546875 760.238281 C 400.671875 760.238281 401.789062 760.183594 402.910156 760.074219 C 404.027344 759.964844 405.136719 759.800781 406.234375 759.582031 C 407.335938 759.359375 408.425781 759.089844 409.5 758.761719 C 410.574219 758.4375 411.628906 758.058594 412.667969 757.628906 C 413.703125 757.199219 414.71875 756.71875 415.707031 756.1875 C 416.699219 755.660156 417.660156 755.082031 418.59375 754.457031 C 419.527344 753.835938 420.429688 753.167969 421.296875 752.453125 C 422.164062 751.742188 422.996094 750.988281 423.789062 750.195312 C 424.582031 749.398438 425.335938 748.570312 426.046875 747.699219 C 426.757812 746.832031 427.425781 745.929688 428.050781 744.996094 C 428.675781 744.0625 429.25 743.101562 429.78125 742.113281 C 430.308594 741.121094 430.789062 740.105469 431.21875 739.070312 C 431.648438 738.03125 432.023438 736.976562 432.351562 735.902344 C 432.675781 734.828125 432.949219 733.738281 433.167969 732.636719 C 433.386719 731.535156 433.550781 730.425781 433.660156 729.308594 C 433.769531 728.191406 433.824219 727.070312 433.824219 725.949219 C 433.824219 725.726562 433.78125 725.507812 433.695312 725.300781 C 433.609375 725.09375 433.488281 724.914062 433.328125 724.753906 C 433.171875 724.59375 432.988281 724.472656 432.78125 724.386719 C 432.574219 724.300781 432.359375 724.257812 432.132812 724.257812 C 431.910156 724.257812 431.695312 724.300781 431.484375 724.386719 C 431.277344 724.472656 431.097656 724.59375 430.9375 724.753906 C 430.777344 724.914062 430.65625 725.09375 430.570312 725.300781 C 430.484375 725.507812 430.441406 725.726562 430.441406 725.949219 C 430.433594 726.957031 430.378906 727.960938 430.273438 728.964844 C 430.167969 729.964844 430.011719 730.957031 429.808594 731.945312 C 429.605469 732.933594 429.355469 733.90625 429.058594 734.867188 C 428.761719 735.832031 428.414062 736.777344 428.023438 737.703125 C 427.632812 738.632812 427.199219 739.539062 426.71875 740.425781 C 426.242188 741.3125 425.71875 742.171875 425.15625 743.007812 C 424.59375 743.84375 423.988281 744.648438 423.347656 745.425781 C 422.703125 746.199219 422.027344 746.941406 421.3125 747.652344 C 420.597656 748.363281 419.847656 749.035156 419.066406 749.671875 C 418.289062 750.308594 417.476562 750.90625 416.636719 751.464844 C 415.800781 752.019531 414.933594 752.535156 414.046875 753.007812 C 413.15625 753.480469 412.246094 753.910156 411.3125 754.292969 C 410.382812 754.675781 409.433594 755.015625 408.46875 755.304688 C 407.507812 755.597656 406.53125 755.839844 405.542969 756.035156 C 404.554688 756.230469 403.558594 756.378906 402.554688 756.476562 C 401.554688 756.574219 400.546875 756.625 399.539062 756.625 C 398.535156 756.625 397.527344 756.574219 396.527344 756.476562 C 395.523438 756.378906 394.527344 756.230469 393.539062 756.035156 C 392.550781 755.839844 391.574219 755.597656 390.609375 755.304688 C 389.648438 755.015625 388.699219 754.675781 387.769531 754.292969 C 386.835938 753.910156 385.925781 753.480469 385.035156 753.007812 C 384.148438 752.535156 383.28125 752.019531 382.445312 751.464844 C 381.605469 750.90625 380.792969 750.308594 380.015625 749.671875 C 379.234375 749.035156 378.484375 748.363281 377.769531 747.652344 C 377.054688 746.941406 376.375 746.199219 375.734375 745.425781 C 375.09375 744.648438 374.488281 743.84375 373.925781 743.007812 C 373.363281 742.171875 372.839844 741.3125 372.363281 740.425781 C 371.882812 739.539062 371.445312 738.632812 371.054688 737.703125 C 370.664062 736.777344 370.320312 735.832031 370.023438 734.867188 C 369.726562 733.90625 369.472656 732.933594 369.273438 731.945312 C 369.070312 730.957031 368.914062 729.964844 368.808594 728.964844 C 368.703125 727.960938 368.648438 726.957031 368.640625 725.949219 Z M 368.644531 725.949219" fill="#d7b56c"/><path fill-rule="nonzero" fill-opacity="1" d="M 404.414062 728.429688 C 404.820312 727.65625 405.027344 726.828125 405.035156 725.949219 C 405.03125 725.371094 404.9375 724.808594 404.757812 724.257812 C 404.578125 723.710938 404.316406 723.203125 403.972656 722.734375 C 403.632812 722.269531 403.226562 721.867188 402.757812 721.53125 C 402.289062 721.191406 401.78125 720.933594 401.230469 720.757812 L 401.230469 708.398438 C 401.230469 708.171875 401.1875 707.957031 401.101562 707.75 C 401.015625 707.542969 400.894531 707.359375 400.734375 707.203125 C 400.578125 707.042969 400.394531 706.921875 400.1875 706.835938 C 399.980469 706.75 399.765625 706.707031 399.539062 706.707031 C 399.316406 706.707031 399.101562 706.75 398.894531 706.835938 C 398.6875 706.921875 398.503906 707.042969 398.34375 707.203125 C 398.1875 707.359375 398.0625 707.542969 397.976562 707.75 C 397.890625 707.957031 397.847656 708.171875 397.847656 708.398438 L 397.847656 720.757812 C 397.226562 720.957031 396.660156 721.257812 396.144531 721.664062 C 395.632812 722.066406 395.203125 722.546875 394.863281 723.101562 C 394.519531 723.660156 394.285156 724.257812 394.15625 724.898438 C 394.027344 725.539062 394.015625 726.183594 394.117188 726.828125 C 394.21875 727.472656 394.429688 728.078125 394.75 728.648438 C 395.070312 729.21875 395.476562 729.714844 395.972656 730.140625 C 396.472656 730.5625 397.027344 730.886719 397.640625 731.113281 C 398.253906 731.339844 398.886719 731.449219 399.539062 731.449219 C 400.417969 731.445312 401.246094 731.238281 402.023438 730.828125 L 408.058594 736.863281 C 408.21875 737.019531 408.398438 737.136719 408.605469 737.21875 C 408.8125 737.300781 409.027344 737.339844 409.246094 737.339844 C 409.46875 737.335938 409.683594 737.292969 409.886719 737.207031 C 410.089844 737.121094 410.273438 737 410.429688 736.84375 C 410.585938 736.6875 410.707031 736.507812 410.792969 736.304688 C 410.878906 736.097656 410.921875 735.886719 410.921875 735.664062 C 410.925781 735.441406 410.886719 735.226562 410.804688 735.023438 C 410.722656 734.816406 410.601562 734.632812 410.449219 734.472656 Z M 397.429688 725.949219 C 397.429688 725.667969 397.480469 725.398438 397.589844 725.140625 C 397.695312 724.882812 397.847656 724.652344 398.046875 724.457031 C 398.246094 724.257812 398.472656 724.105469 398.730469 724 C 398.992188 723.890625 399.261719 723.835938 399.539062 723.835938 C 399.820312 723.835938 400.089844 723.890625 400.347656 724 C 400.605469 724.105469 400.835938 724.257812 401.035156 724.457031 C 401.230469 724.652344 401.382812 724.882812 401.492188 725.140625 C 401.597656 725.398438 401.652344 725.667969 401.652344 725.949219 C 401.652344 726.230469 401.597656 726.5 401.492188 726.757812 C 401.382812 727.015625 401.230469 727.246094 401.035156 727.441406 C 400.835938 727.640625 400.605469 727.792969 400.347656 727.898438 C 400.089844 728.007812 399.820312 728.0625 399.539062 728.0625 C 399.261719 728.0625 398.992188 728.007812 398.730469 727.898438 C 398.472656 727.792969 398.246094 727.640625 398.046875 727.441406 C 397.851562 727.242188 397.695312 727.015625 397.589844 726.757812 C 397.484375 726.5 397.429688 726.230469 397.429688 725.949219 Z M 397.429688 725.949219" fill="#d7b56c"/><path fill-rule="nonzero" fill-opacity="1" d="M 383.632812 707.648438 L 380.695312 704.714844 C 380.535156 704.550781 380.355469 704.425781 380.144531 704.335938 C 379.9375 704.246094 379.71875 704.199219 379.492188 704.199219 C 379.265625 704.195312 379.046875 704.238281 378.839844 704.324219 C 378.628906 704.410156 378.441406 704.535156 378.28125 704.695312 C 378.121094 704.855469 378 705.039062 377.914062 705.25 C 377.828125 705.457031 377.785156 705.675781 377.789062 705.902344 C 377.789062 706.128906 377.835938 706.347656 377.925781 706.554688 C 378.015625 706.765625 378.140625 706.949219 378.304688 707.105469 L 381.242188 710.039062 C 381.398438 710.203125 381.582031 710.328125 381.792969 710.417969 C 382 710.507812 382.21875 710.554688 382.445312 710.558594 C 382.671875 710.558594 382.890625 710.515625 383.097656 710.429688 C 383.308594 710.34375 383.492188 710.222656 383.652344 710.0625 C 383.8125 709.902344 383.9375 709.714844 384.023438 709.507812 C 384.109375 709.296875 384.152344 709.078125 384.148438 708.851562 C 384.148438 708.625 384.101562 708.40625 384.011719 708.199219 C 383.921875 707.992188 383.796875 707.808594 383.632812 707.648438 Z M 383.632812 707.648438" fill="#d7b56c"/><path fill-rule="nonzero" fill-opacity="1" d="M 371.199219 724.257812 C 370.976562 724.257812 370.757812 724.300781 370.550781 724.386719 C 370.34375 724.472656 370.160156 724.59375 370.003906 724.753906 C 369.84375 724.914062 369.722656 725.09375 369.636719 725.300781 C 369.550781 725.507812 369.507812 725.726562 369.507812 725.949219 C 369.507812 726.171875 369.550781 726.390625 369.636719 726.597656 C 369.722656 726.804688 369.84375 726.984375 370.003906 727.144531 C 370.160156 727.304688 370.34375 727.425781 370.550781 727.511719 C 370.757812 727.597656 370.976562 727.640625 371.199219 727.640625 L 375.351562 727.640625 C 375.574219 727.640625 375.792969 727.597656 376 727.511719 C 376.207031 727.425781 376.386719 727.304688 376.546875 727.144531 C 376.707031 726.984375 376.828125 726.804688 376.914062 726.597656 C 377 726.390625 377.042969 726.171875 377.042969 725.949219 C 377.042969 725.726562 377 725.507812 376.914062 725.300781 C 376.828125 725.09375 376.707031 724.914062 376.546875 724.753906 C 376.386719 724.59375 376.207031 724.472656 376 724.386719 C 375.792969 724.300781 375.574219 724.257812 375.351562 724.257812 Z M 371.199219 724.257812" fill="#d7b56c"/><path fill-rule="nonzero" fill-opacity="1" d="M 381.242188 741.859375 L 378.304688 744.792969 C 378.140625 744.953125 378.015625 745.136719 377.925781 745.34375 C 377.835938 745.550781 377.789062 745.769531 377.789062 745.996094 C 377.785156 746.222656 377.828125 746.441406 377.914062 746.652344 C 378 746.859375 378.121094 747.046875 378.28125 747.207031 C 378.441406 747.367188 378.628906 747.488281 378.839844 747.574219 C 379.046875 747.660156 379.265625 747.703125 379.492188 747.703125 C 379.71875 747.699219 379.9375 747.652344 380.144531 747.566406 C 380.355469 747.476562 380.535156 747.347656 380.695312 747.1875 L 383.632812 744.25 C 383.796875 744.089844 383.921875 743.910156 384.011719 743.699219 C 384.101562 743.492188 384.148438 743.273438 384.148438 743.046875 C 384.152344 742.820312 384.109375 742.601562 384.023438 742.390625 C 383.9375 742.183594 383.8125 741.996094 383.652344 741.835938 C 383.492188 741.675781 383.308594 741.554688 383.097656 741.46875 C 382.890625 741.382812 382.671875 741.339844 382.445312 741.34375 C 382.21875 741.34375 382 741.390625 381.792969 741.480469 C 381.582031 741.570312 381.398438 741.695312 381.242188 741.859375 Z M 381.242188 741.859375" fill="#d7b56c"/><path fill-rule="nonzero" fill-opacity="1" d="M 401.230469 754.289062 L 401.230469 750.136719 C 401.230469 749.914062 401.1875 749.699219 401.101562 749.492188 C 401.015625 749.285156 400.894531 749.101562 400.734375 748.941406 C 400.578125 748.785156 400.394531 748.660156 400.1875 748.574219 C 399.980469 748.488281 399.765625 748.445312 399.539062 748.445312 C 399.316406 748.445312 399.101562 748.488281 398.894531 748.574219 C 398.6875 748.660156 398.503906 748.785156 398.34375 748.941406 C 398.1875 749.101562 398.0625 749.285156 397.976562 749.492188 C 397.890625 749.699219 397.847656 749.914062 397.847656 750.136719 L 397.847656 754.289062 C 397.847656 754.515625 397.890625 754.730469 397.976562 754.9375 C 398.0625 755.144531 398.1875 755.328125 398.34375 755.484375 C 398.503906 755.644531 398.6875 755.765625 398.894531 755.851562 C 399.101562 755.9375 399.316406 755.980469 399.539062 755.980469 C 399.765625 755.980469 399.980469 755.9375 400.1875 755.851562 C 400.394531 755.765625 400.578125 755.644531 400.734375 755.484375 C 400.894531 755.328125 401.015625 755.144531 401.101562 754.9375 C 401.1875 754.730469 401.230469 754.515625 401.230469 754.289062 Z M 401.230469 754.289062" fill="#d7b56c"/><path fill-rule="nonzero" fill-opacity="1" d="M 419.582031 747.679688 C 419.921875 747.679688 420.234375 747.585938 420.519531 747.394531 C 420.804688 747.207031 421.011719 746.953125 421.144531 746.636719 C 421.273438 746.320312 421.304688 745.996094 421.238281 745.660156 C 421.171875 745.324219 421.019531 745.035156 420.777344 744.792969 L 417.847656 741.859375 C 417.6875 741.695312 417.503906 741.570312 417.296875 741.480469 C 417.089844 741.390625 416.871094 741.34375 416.644531 741.34375 C 416.417969 741.339844 416.199219 741.382812 415.988281 741.46875 C 415.78125 741.554688 415.59375 741.675781 415.433594 741.835938 C 415.273438 741.996094 415.152344 742.183594 415.066406 742.390625 C 414.980469 742.601562 414.9375 742.820312 414.9375 743.046875 C 414.941406 743.273438 414.988281 743.492188 415.078125 743.699219 C 415.164062 743.910156 415.292969 744.089844 415.457031 744.25 L 418.390625 747.1875 C 418.71875 747.515625 419.117188 747.679688 419.582031 747.679688 Z M 419.582031 747.679688" fill="#d7b56c"/><g clip-path="url(#3b92948374)"><path fill-rule="nonzero" fill-opacity="1" d="M 452.09375 691.113281 L 448.058594 691.113281 C 447.585938 688.921875 446.738281 686.878906 445.523438 684.996094 L 448.378906 682.140625 C 448.535156 681.980469 448.660156 681.800781 448.746094 681.59375 C 448.832031 681.386719 448.875 681.167969 448.875 680.945312 C 448.875 680.722656 448.832031 680.503906 448.746094 680.296875 C 448.660156 680.089844 448.535156 679.910156 448.378906 679.75 L 445.253906 676.628906 C 445.09375 676.46875 444.910156 676.347656 444.703125 676.261719 C 444.496094 676.175781 444.28125 676.132812 444.058594 676.132812 C 443.832031 676.132812 443.617188 676.175781 443.410156 676.261719 C 443.203125 676.347656 443.019531 676.46875 442.863281 676.628906 L 440.003906 679.480469 C 438.121094 678.261719 436.082031 677.417969 433.886719 676.945312 L 433.886719 672.90625 C 433.886719 672.683594 433.84375 672.46875 433.757812 672.261719 C 433.675781 672.054688 433.550781 671.871094 433.394531 671.710938 C 433.234375 671.554688 433.050781 671.429688 432.84375 671.34375 C 432.636719 671.257812 432.421875 671.214844 432.199219 671.214844 L 427.777344 671.214844 C 427.554688 671.214844 427.339844 671.257812 427.128906 671.34375 C 426.921875 671.429688 426.742188 671.554688 426.582031 671.710938 C 426.421875 671.871094 426.300781 672.054688 426.214844 672.261719 C 426.128906 672.46875 426.085938 672.683594 426.085938 672.90625 L 426.085938 676.945312 C 423.894531 677.417969 421.855469 678.261719 419.96875 679.480469 L 417.113281 676.628906 C 416.957031 676.46875 416.773438 676.347656 416.566406 676.261719 C 416.359375 676.175781 416.144531 676.132812 415.917969 676.132812 C 415.695312 676.132812 415.480469 676.175781 415.273438 676.261719 C 415.066406 676.347656 414.882812 676.46875 414.722656 676.628906 L 411.597656 679.75 C 411.441406 679.910156 411.316406 680.089844 411.230469 680.296875 C 411.148438 680.503906 411.105469 680.722656 411.105469 680.945312 C 411.105469 681.167969 411.148438 681.386719 411.230469 681.59375 C 411.316406 681.800781 411.441406 681.980469 411.597656 682.140625 L 414.453125 684.996094 C 413.234375 686.878906 412.390625 688.921875 411.917969 691.113281 L 407.882812 691.113281 C 407.65625 691.113281 407.441406 691.15625 407.234375 691.242188 C 407.027344 691.328125 406.84375 691.449219 406.6875 691.609375 C 406.527344 691.769531 406.40625 691.949219 406.320312 692.15625 C 406.234375 692.363281 406.191406 692.582031 406.191406 692.804688 L 406.191406 697.222656 C 406.191406 697.449219 406.234375 697.664062 406.320312 697.871094 C 406.40625 698.078125 406.527344 698.261719 406.6875 698.421875 C 406.84375 698.578125 407.027344 698.699219 407.234375 698.785156 C 407.441406 698.871094 407.65625 698.914062 407.882812 698.914062 L 411.917969 698.914062 C 412.390625 701.109375 413.234375 703.148438 414.453125 705.03125 L 411.597656 707.886719 C 411.441406 708.046875 411.316406 708.226562 411.230469 708.433594 C 411.144531 708.644531 411.101562 708.859375 411.101562 709.082031 C 411.101562 709.308594 411.144531 709.523438 411.230469 709.730469 C 411.316406 709.9375 411.441406 710.121094 411.597656 710.277344 L 414.722656 713.402344 C 414.882812 713.5625 415.066406 713.683594 415.273438 713.769531 C 415.480469 713.855469 415.695312 713.898438 415.917969 713.898438 C 416.144531 713.898438 416.359375 713.855469 416.566406 713.769531 C 416.773438 713.683594 416.957031 713.5625 417.113281 713.402344 L 419.96875 710.550781 C 421.855469 711.765625 423.894531 712.613281 426.085938 713.085938 L 426.085938 717.121094 C 426.085938 717.347656 426.128906 717.5625 426.214844 717.769531 C 426.300781 717.976562 426.421875 718.160156 426.582031 718.316406 C 426.742188 718.476562 426.921875 718.597656 427.128906 718.683594 C 427.339844 718.769531 427.554688 718.8125 427.777344 718.8125 L 432.199219 718.8125 C 432.421875 718.8125 432.636719 718.769531 432.84375 718.683594 C 433.050781 718.597656 433.234375 718.476562 433.394531 718.316406 C 433.550781 718.160156 433.675781 717.976562 433.757812 717.769531 C 433.84375 717.5625 433.886719 717.347656 433.886719 717.121094 L 433.886719 713.085938 C 436.082031 712.609375 438.121094 711.765625 440.007812 710.546875 L 442.871094 713.402344 C 443.027344 713.5625 443.210938 713.683594 443.417969 713.769531 C 443.625 713.855469 443.839844 713.898438 444.066406 713.898438 C 444.289062 713.898438 444.503906 713.855469 444.710938 713.769531 C 444.917969 713.683594 445.101562 713.5625 445.261719 713.402344 L 448.378906 710.273438 C 448.539062 710.117188 448.660156 709.933594 448.746094 709.726562 C 448.832031 709.519531 448.875 709.300781 448.875 709.078125 C 448.875 708.851562 448.832031 708.636719 448.746094 708.429688 C 448.660156 708.222656 448.539062 708.039062 448.378906 707.882812 L 445.523438 705.03125 C 446.738281 703.148438 447.585938 701.109375 448.058594 698.914062 L 452.09375 698.914062 C 452.316406 698.914062 452.53125 698.871094 452.738281 698.785156 C 452.949219 698.699219 453.128906 698.578125 453.289062 698.421875 C 453.445312 698.261719 453.570312 698.078125 453.65625 697.871094 C 453.742188 697.664062 453.785156 697.449219 453.785156 697.222656 L 453.785156 692.804688 C 453.785156 692.582031 453.742188 692.363281 453.65625 692.15625 C 453.570312 691.949219 453.445312 691.769531 453.289062 691.609375 C 453.128906 691.449219 452.949219 691.328125 452.738281 691.242188 C 452.53125 691.15625 452.316406 691.113281 452.09375 691.113281 Z M 450.402344 695.535156 L 446.636719 695.535156 C 446.433594 695.535156 446.234375 695.570312 446.042969 695.640625 C 445.851562 695.714844 445.675781 695.816406 445.523438 695.953125 C 445.367188 696.089844 445.242188 696.246094 445.148438 696.425781 C 445.050781 696.609375 444.988281 696.800781 444.960938 697.003906 C 444.609375 699.664062 443.613281 702.058594 441.980469 704.1875 C 441.855469 704.351562 441.765625 704.527344 441.703125 704.726562 C 441.644531 704.921875 441.621094 705.121094 441.636719 705.328125 C 441.648438 705.53125 441.699219 705.726562 441.78125 705.914062 C 441.867188 706.101562 441.980469 706.265625 442.125 706.410156 L 444.789062 709.089844 L 444.058594 709.824219 L 441.390625 707.160156 C 441.246094 707.015625 441.082031 706.898438 440.894531 706.816406 C 440.707031 706.730469 440.511719 706.679688 440.308594 706.667969 C 440.101562 706.652344 439.902344 706.675781 439.707031 706.734375 C 439.507812 706.796875 439.328125 706.886719 439.167969 707.011719 C 437.035156 708.648438 434.640625 709.640625 431.976562 709.992188 C 431.773438 710.019531 431.582031 710.082031 431.402344 710.179688 C 431.21875 710.273438 431.0625 710.398438 430.925781 710.554688 C 430.792969 710.707031 430.6875 710.882812 430.617188 711.074219 C 430.542969 711.265625 430.507812 711.464844 430.507812 711.667969 L 430.507812 715.4375 L 429.46875 715.4375 L 429.46875 711.664062 C 429.46875 711.457031 429.433594 711.257812 429.359375 711.066406 C 429.289062 710.875 429.183594 710.703125 429.046875 710.546875 C 428.914062 710.394531 428.753906 710.269531 428.574219 710.171875 C 428.394531 710.074219 428.199219 710.011719 427.996094 709.988281 C 425.335938 709.632812 422.9375 708.640625 420.808594 707.003906 C 420.644531 706.882812 420.464844 706.789062 420.269531 706.730469 C 420.074219 706.667969 419.871094 706.648438 419.667969 706.660156 C 419.464844 706.675781 419.269531 706.722656 419.082031 706.808594 C 418.894531 706.894531 418.726562 707.007812 418.582031 707.152344 L 415.917969 709.816406 L 415.183594 709.082031 L 417.847656 706.417969 C 417.992188 706.273438 418.105469 706.105469 418.191406 705.917969 C 418.273438 705.734375 418.324219 705.539062 418.335938 705.332031 C 418.351562 705.128906 418.328125 704.929688 418.269531 704.730469 C 418.207031 704.535156 418.117188 704.355469 417.992188 704.195312 C 416.359375 702.0625 415.363281 699.664062 415.011719 697.003906 C 414.984375 696.800781 414.921875 696.609375 414.824219 696.425781 C 414.730469 696.246094 414.601562 696.089844 414.449219 695.953125 C 414.296875 695.816406 414.121094 695.714844 413.929688 695.640625 C 413.738281 695.570312 413.539062 695.535156 413.335938 695.535156 L 409.574219 695.535156 L 409.574219 694.496094 L 413.339844 694.496094 C 413.542969 694.496094 413.742188 694.460938 413.933594 694.386719 C 414.125 694.316406 414.300781 694.210938 414.453125 694.074219 C 414.605469 693.941406 414.734375 693.78125 414.828125 693.601562 C 414.925781 693.421875 414.988281 693.226562 415.015625 693.023438 C 415.367188 690.363281 416.363281 687.964844 417.996094 685.832031 C 418.121094 685.671875 418.210938 685.492188 418.269531 685.296875 C 418.328125 685.097656 418.351562 684.898438 418.339844 684.695312 C 418.324219 684.488281 418.277344 684.292969 418.191406 684.105469 C 418.105469 683.921875 417.992188 683.753906 417.847656 683.609375 L 415.183594 680.945312 L 415.917969 680.210938 L 418.582031 682.882812 C 418.726562 683.027344 418.894531 683.144531 419.082031 683.226562 C 419.269531 683.3125 419.464844 683.363281 419.667969 683.375 C 419.871094 683.390625 420.074219 683.367188 420.269531 683.308594 C 420.464844 683.246094 420.644531 683.15625 420.808594 683.03125 C 422.9375 681.394531 425.332031 680.398438 427.992188 680.039062 C 428.195312 680.015625 428.386719 679.953125 428.566406 679.855469 C 428.75 679.757812 428.90625 679.632812 429.042969 679.480469 C 429.175781 679.324219 429.28125 679.152344 429.351562 678.960938 C 429.425781 678.769531 429.460938 678.570312 429.460938 678.367188 L 429.460938 674.597656 L 430.5 674.597656 L 430.5 678.367188 C 430.5 678.570312 430.535156 678.769531 430.609375 678.960938 C 430.679688 679.152344 430.785156 679.324219 430.921875 679.480469 C 431.054688 679.632812 431.214844 679.757812 431.394531 679.855469 C 431.574219 679.953125 431.769531 680.015625 431.972656 680.039062 C 434.632812 680.394531 437.027344 681.386719 439.160156 683.019531 C 439.324219 683.144531 439.503906 683.238281 439.699219 683.296875 C 439.894531 683.355469 440.09375 683.378906 440.300781 683.367188 C 440.503906 683.351562 440.699219 683.304688 440.886719 683.21875 C 441.074219 683.132812 441.242188 683.019531 441.386719 682.875 L 444.054688 680.210938 L 444.789062 680.945312 L 442.125 683.609375 C 441.980469 683.753906 441.867188 683.921875 441.78125 684.109375 C 441.699219 684.292969 441.648438 684.488281 441.636719 684.695312 C 441.621094 684.898438 441.644531 685.097656 441.703125 685.296875 C 441.765625 685.492188 441.855469 685.671875 441.980469 685.832031 C 443.617188 687.964844 444.609375 690.363281 444.960938 693.027344 C 444.988281 693.230469 445.046875 693.421875 445.144531 693.605469 C 445.242188 693.785156 445.367188 693.945312 445.519531 694.078125 C 445.675781 694.214844 445.847656 694.320312 446.039062 694.390625 C 446.234375 694.464844 446.433594 694.5 446.636719 694.5 L 450.402344 694.5 Z M 450.402344 695.535156" fill="#d7b56c"/></g><path fill-rule="nonzero" fill-opacity="1" d="M 429.988281 681.804688 C 429.121094 681.804688 428.261719 681.890625 427.410156 682.058594 C 426.558594 682.230469 425.734375 682.480469 424.933594 682.8125 C 424.132812 683.144531 423.371094 683.550781 422.648438 684.03125 C 421.929688 684.515625 421.261719 685.0625 420.648438 685.675781 C 420.035156 686.289062 419.488281 686.957031 419.003906 687.675781 C 418.523438 688.398438 418.117188 689.160156 417.785156 689.960938 C 417.453125 690.761719 417.203125 691.585938 417.03125 692.4375 C 416.863281 693.289062 416.777344 694.148438 416.777344 695.015625 C 416.777344 695.882812 416.863281 696.742188 417.03125 697.589844 C 417.203125 698.441406 417.453125 699.269531 417.785156 700.070312 C 418.117188 700.871094 418.523438 701.632812 419.003906 702.351562 C 419.488281 703.074219 420.035156 703.742188 420.648438 704.355469 C 421.261719 704.96875 421.929688 705.515625 422.648438 705.996094 C 423.371094 706.480469 424.132812 706.886719 424.933594 707.21875 C 425.734375 707.550781 426.558594 707.800781 427.410156 707.96875 C 428.261719 708.136719 429.121094 708.222656 429.988281 708.222656 C 430.855469 708.222656 431.714844 708.136719 432.566406 707.96875 C 433.414062 707.800781 434.242188 707.550781 435.042969 707.21875 C 435.84375 706.886719 436.605469 706.480469 437.324219 705.996094 C 438.046875 705.515625 438.714844 704.96875 439.328125 704.355469 C 439.941406 703.742188 440.488281 703.074219 440.96875 702.351562 C 441.453125 701.632812 441.859375 700.871094 442.191406 700.070312 C 442.523438 699.269531 442.773438 698.441406 442.941406 697.589844 C 443.113281 696.742188 443.195312 695.882812 443.195312 695.015625 C 443.195312 694.148438 443.109375 693.289062 442.941406 692.4375 C 442.769531 691.589844 442.519531 690.761719 442.1875 689.960938 C 441.855469 689.160156 441.449219 688.402344 440.964844 687.679688 C 440.484375 686.960938 439.9375 686.292969 439.324219 685.679688 C 438.710938 685.066406 438.042969 684.519531 437.324219 684.035156 C 436.601562 683.554688 435.839844 683.148438 435.039062 682.816406 C 434.238281 682.484375 433.414062 682.230469 432.5625 682.0625 C 431.714844 681.894531 430.855469 681.808594 429.988281 681.804688 Z M 429.988281 704.839844 C 429.34375 704.839844 428.703125 704.777344 428.070312 704.652344 C 427.4375 704.527344 426.824219 704.339844 426.226562 704.09375 C 425.632812 703.847656 425.066406 703.542969 424.527344 703.183594 C 423.992188 702.828125 423.496094 702.417969 423.039062 701.964844 C 422.582031 701.507812 422.175781 701.011719 421.816406 700.472656 C 421.457031 699.9375 421.15625 699.371094 420.910156 698.773438 C 420.660156 698.179688 420.476562 697.566406 420.351562 696.933594 C 420.222656 696.300781 420.160156 695.660156 420.160156 695.015625 C 420.160156 694.371094 420.222656 693.730469 420.351562 693.097656 C 420.476562 692.464844 420.660156 691.851562 420.910156 691.253906 C 421.15625 690.65625 421.457031 690.089844 421.816406 689.554688 C 422.175781 689.019531 422.582031 688.523438 423.039062 688.066406 C 423.496094 687.609375 423.992188 687.203125 424.527344 686.84375 C 425.066406 686.484375 425.632812 686.183594 426.226562 685.9375 C 426.824219 685.6875 427.4375 685.503906 428.070312 685.375 C 428.703125 685.25 429.34375 685.1875 429.988281 685.1875 C 430.632812 685.1875 431.273438 685.25 431.90625 685.375 C 432.539062 685.503906 433.152344 685.6875 433.75 685.9375 C 434.34375 686.183594 434.910156 686.484375 435.445312 686.84375 C 435.984375 687.203125 436.480469 687.609375 436.9375 688.066406 C 437.394531 688.523438 437.800781 689.019531 438.160156 689.554688 C 438.515625 690.089844 438.820312 690.65625 439.066406 691.253906 C 439.3125 691.851562 439.5 692.464844 439.625 693.097656 C 439.75 693.730469 439.816406 694.371094 439.816406 695.015625 C 439.8125 695.660156 439.75 696.296875 439.625 696.929688 C 439.496094 697.5625 439.308594 698.175781 439.0625 698.773438 C 438.816406 699.367188 438.511719 699.933594 438.15625 700.472656 C 437.796875 701.007812 437.386719 701.503906 436.933594 701.960938 C 436.476562 702.414062 435.980469 702.824219 435.445312 703.179688 C 434.90625 703.539062 434.34375 703.84375 433.746094 704.089844 C 433.152344 704.335938 432.535156 704.523438 431.902344 704.652344 C 431.269531 704.777344 430.632812 704.839844 429.988281 704.839844 Z M 429.988281 704.839844" fill="#d7b56c"/></svg>