<svg version="1.0" preserveAspectRatio="xMidYMid meet" viewBox="118.18505338078292 290.87998687000004 573.6298932384342 573.1199741300001" zoomAndPan="magnify" xmlns:xlink="http://www.w3.org/1999/xlink" xmlns="http://www.w3.org/2000/svg" style="max-height: 500px" width="573.6298932384342" height="573.1199741300001"><defs><clipPath id="83b9566c35"><path clip-rule="nonzero" d="M 130.847656 300.417969 L 679.097656 300.417969 L 679.097656 848.667969 L 130.847656 848.667969 Z M 130.847656 300.417969"/></clipPath></defs><g clip-path="url(#83b9566c35)"><path fill-rule="nonzero" fill-opacity="1" d="M 404.996094 848.714844 C 253.828125 848.714844 130.847656 725.734375 130.847656 574.566406 C 130.847656 423.394531 253.828125 300.417969 404.996094 300.417969 C 556.167969 300.417969 679.144531 423.394531 679.144531 574.566406 C 679.144531 725.734375 556.167969 848.714844 404.996094 848.714844 Z M 404.996094 323.261719 C 266.4375 323.261719 153.695312 436.003906 153.695312 574.566406 C 153.695312 713.125 266.4375 825.867188 404.996094 825.867188 C 543.554688 825.867188 656.300781 713.125 656.300781 574.566406 C 656.300781 436.003906 543.554688 323.261719 404.996094 323.261719 Z M 404.996094 323.261719" fill="#cfac65"/></g><path fill-rule="nonzero" fill-opacity="1" d="M 484.273438 734.554688 C 461.058594 734.554688 437.1875 728.363281 418.109375 722.398438 C 380.597656 710.679688 345.941406 689.683594 317.910156 661.652344 C 280.214844 623.957031 254.488281 573.605469 247.363281 523.527344 C 244.164062 501.046875 242.289062 472.285156 256.363281 449.347656 C 269.523438 427.941406 293.304688 414.644531 318.457031 414.644531 C 322.84375 414.644531 327.09375 415.125 331.183594 415.808594 C 331.386719 415.855469 331.617188 415.878906 331.820312 415.945312 C 345.988281 418.574219 357.203125 430.707031 359.191406 445.578125 L 368.742188 516.972656 C 370.75 532.050781 362.753906 546.96875 349.253906 553.25 C 347.769531 553.933594 346.261719 554.597656 344.707031 555.191406 C 352.679688 572.644531 363.625 588.386719 377.375 602.140625 C 391.128906 615.894531 406.871094 626.859375 424.347656 634.832031 C 424.917969 633.300781 425.582031 631.769531 426.242188 630.285156 C 432.550781 616.785156 447.488281 608.742188 462.566406 610.820312 L 533.960938 620.371094 C 548.949219 622.359375 561.171875 633.78125 563.683594 648.128906 C 564.4375 652.398438 564.917969 656.671875 564.917969 661.082031 C 564.917969 684.816406 553.335938 707.117188 533.914062 720.730469 C 519.410156 730.921875 502.046875 734.554688 484.273438 734.554688 Z M 318.457031 437.492188 C 301.207031 437.492188 284.851562 446.605469 275.828125 461.296875 C 265.570312 478.019531 267.304688 501.617188 269.980469 520.304688 C 276.421875 565.5625 299.769531 611.210938 334.0625 645.476562 C 359.488281 670.90625 390.902344 689.957031 424.917969 700.558594 C 470.5625 714.792969 501.929688 715.292969 520.800781 702.019531 C 533.914062 692.835938 542.070312 677.117188 542.070312 661.082031 C 542.070312 657.953125 541.683594 654.980469 541.203125 652.125 C 540.378906 647.375 536.175781 643.671875 530.96875 642.988281 L 459.574219 633.414062 C 454.367188 632.84375 449.113281 635.355469 447.03125 639.878906 C 445.25 643.695312 443.972656 647.855469 443.195312 652.21875 C 442.601562 655.554688 440.566406 658.429688 437.644531 660.144531 C 434.71875 661.8125 431.179688 662.132812 428.027344 660.96875 C 402.804688 651.691406 380.371094 637.320312 361.316406 618.269531 C 342.261719 599.238281 327.894531 576.78125 318.617188 551.535156 C 317.453125 548.359375 317.75 544.84375 319.441406 541.894531 C 321.128906 538.972656 324.03125 536.9375 327.367188 536.367188 C 331.707031 535.613281 335.867188 534.3125 339.679688 532.527344 C 344.203125 530.425781 346.878906 525.285156 346.167969 519.988281 L 336.550781 448.59375 C 335.867188 443.363281 332.140625 439.160156 327.527344 438.382812 C 326.75 438.222656 325.972656 438.015625 325.242188 437.71875 C 324.558594 437.902344 321.5625 437.492188 318.457031 437.492188 Z M 318.457031 437.492188" fill="#cfac65"/></svg>